<svg width="88" height="36" viewBox="0 0 88 36" fill="none" xmlns="http://www.w3.org/2000/svg">
<g clip-path="url(#clip0_1_2046)">
<path d="M17.0742 5.48178H22.3615C23.8123 5.48178 25.6498 5.8276 25.6498 8.29268C25.6498 10.7578 23.0231 11.7623 21.0737 11.7623H17.0742V5.48178ZM17.0742 15.1116H20.0862C25.0378 15.1116 27.5596 16.194 27.5596 19.0913C27.5596 21.6585 25.5365 22.7437 22.3615 22.7437H17.5417L12.0305 26.6029V26.6044L22.3247 26.6015C28.489 26.6015 32.6388 24.3815 32.6388 19.2457C32.6388 14.7659 28.9665 13.0063 25.6881 13.0063C27.9535 13.0063 30.6298 10.976 30.6298 7.5333C30.6298 4.09341 27.4832 1.62109 23.8931 1.62109H13.3863H11.1082L12.0305 3.66833V24.8051L17.0742 21.2731V15.1116Z" fill="#00AA5D"/>
<path d="M40.9396 5.4808H44.3753C45.7921 5.4808 53.0218 5.83945 53.0218 14.1117C53.0218 23.5503 44.3753 22.7399 44.3753 22.7399L41.4086 22.7427L35.8945 26.602V26.6034H45.792C51.9578 26.6034 58.2766 22.8107 58.2766 14.1117C58.2766 6.39748 52.7583 1.62012 45.792 1.62012H34.9736L35.8945 3.66735V24.8041L40.9396 21.2721V5.4808Z" fill="#00AA5D"/>
<path d="M65.8634 14.1107C65.8634 7.04671 70.73 5.06183 73.8823 5.06183C77.0346 5.06183 81.9026 7.04671 81.9026 14.1107C81.9026 21.1747 77.0346 23.1596 73.8823 23.1596C70.73 23.1596 65.8634 21.1747 65.8634 14.1107ZM60.6072 14.1107C60.6072 24.0776 68.6629 26.8786 73.8823 26.8786C79.1017 26.8786 87.1574 24.0776 87.1574 14.1107C87.1574 4.14377 79.1017 1.34424 73.8823 1.34424C68.6629 1.34424 60.6072 4.14377 60.6072 14.1107Z" fill="#00AA5D"/>
<path d="M0.668701 1.62061V32.7625L5.5962 29.3113V1.62061H0.668701Z" fill="#00AA5D"/>
<path d="M6.51663 30.4629L0.668213 34.5559H86.8813V30.4629H6.51663Z" fill="#00AA5D"/>
</g>
<defs>
<clipPath id="clip0_1_2046">
<rect width="87.8274" height="34.2741" fill="white" transform="translate(0 0.813477)"/>
</clipPath>
</defs>
</svg>
