<svg width="131" height="99" viewBox="0 0 131 99" fill="none" xmlns="http://www.w3.org/2000/svg">
<g clip-path="url(#clip0_1_2838)">
<path d="M130.525 42.5093H83.0486V30.3657H130.525V42.5093Z" fill="#00AA5D" fill-opacity="0.2"/>
<path d="M124.359 42.5094H83.0486V12.1372H124.359V42.5094Z" fill="#00AA5D" fill-opacity="0.2"/>
<path d="M107.291 42.5094H83.0486V0H107.291V42.5094Z" fill="#00AA5D" fill-opacity="0.2"/>
<path d="M112.061 42.5091H83.0486V4.74316H112.061V42.5091Z" fill="#00AA5D" fill-opacity="0.2"/>
<path d="M83.0419 4.75098V42.5059H107.289V4.75098H83.0419Z" fill="#00AA5D" fill-opacity="0.2"/>
<path d="M58.7382 42.5093H83.0483V48.5817H58.7382V42.5093Z" fill="#00AA5D"/>
<path d="M83.0419 12.1304V42.5054H112.075V12.1304H83.0419Z" fill="#00AA5D" fill-opacity="0.2"/>
<path d="M83.0419 12.1304V42.5054H107.289V12.1304H83.0419Z" fill="#00AA5D" fill-opacity="0.2"/>
<path d="M98.2089 42.5092H83.0486V24.2793H98.2089V42.5092Z" fill="#00AA5D" fill-opacity="0.2"/>
<path d="M83.0419 30.3745V42.5055H124.373V30.3745H83.0419Z" fill="#00AA5D" fill-opacity="0.2"/>
<path d="M83.0419 30.3745V42.5055H112.075V30.3745H83.0419Z" fill="#00AA5D" fill-opacity="0.2"/>
<path d="M83.0419 30.3745V42.5055H107.289V30.3745H83.0419Z" fill="#00AA5D" fill-opacity="0.2"/>
<path d="M83.0419 30.3745V42.5055H98.2239V30.3745H83.0419Z" fill="#00AA5D"/>
<path d="M88.3341 65.3807C84.1978 66.1155 81.9917 69.2386 81.9917 74.6582C81.9917 80.1695 84.9331 83.8438 89.2533 83.8438C91.3675 83.8438 93.2059 83.1089 97.0665 81.1799C97.0665 85.6809 97.0665 85.6809 97.0665 85.6809C92.3786 87.8854 89.621 88.4366 85.9442 88.4366C81.8079 88.4366 78.8665 87.4262 76.5685 84.946C74.1786 82.5578 72.8917 79.4347 72.8917 75.8523C72.8917 68.0445 78.7745 62.625 87.323 62.625C92.9301 62.625 96.8826 65.2888 96.8826 69.0549C96.8826 71.535 95.0442 73.2803 92.3786 73.2803C90.9998 73.2803 89.8968 72.821 88.3341 71.9943" fill="#00AA5D"/>
<path d="M67.6524 75.8523C71.4211 71.1676 72.7999 69.2386 72.7999 66.9422C72.7999 64.6458 70.9615 62.625 68.3878 62.625C66.9171 62.625 65.5383 63.4517 64.8948 64.1866C64.8948 73.8314 64.8948 73.8314 64.8948 73.8314C58.7363 82.0985 58.7363 82.0985 58.7363 82.0985C58.7363 63.3598 58.7363 63.3598 58.7363 63.3598C52.8534 63.3598 52.8534 63.3598 52.8534 63.3598C43.11 79.4347 43.11 79.4347 43.11 79.4347C43.11 63.3598 43.11 63.3598 43.11 63.3598C39.8009 63.3598 39.8009 63.3598 39.8009 63.3598C30.8848 65.3807 30.8848 65.3807 30.8848 65.3807C30.8848 67.6771 30.8848 67.6771 30.8848 67.6771C35.7565 68.1364 35.7565 68.1364 35.7565 68.1364C35.7565 88.0691 35.7565 88.0691 35.7565 88.0691C41.9151 88.0691 41.9151 88.0691 41.9151 88.0691C51.2908 72.6373 51.2908 72.6373 51.2908 72.6373C51.2908 88.0691 51.2908 88.0691 51.2908 88.0691C58.1847 88.0691 58.1847 88.0691 58.1847 88.0691" fill="#00AA5D"/>
<path d="M12.2252 84.9459C12.9606 84.9459 13.1444 84.9459 13.604 84.9459C18.5677 84.9459 21.3252 81.9147 21.3252 75.8522C21.3252 70.8001 19.1192 68.0444 14.9828 68.0444C14.4313 68.0444 13.604 68.1362 12.2252 68.4118V84.9459ZM12.2252 95.7849C16.2697 96.7035 16.2697 96.7035 16.2697 96.7035C16.2697 98.9999 16.2697 98.9999 16.2697 98.9999C0.367676 98.9999 0.367678 98.9999 0.367678 98.9999C0.367678 96.7035 0.367678 96.7035 0.367678 96.7035C4.04444 95.7849 4.04444 95.7849 4.04444 95.7849C4.04444 68.0444 4.04444 68.0444 4.04444 68.0444C-4.97914e-07 68.0444 0 68.0444 0 68.0444C0 65.748 0 65.748 0 65.748C9.65151 62.8086 9.65151 62.8086 9.65151 62.8086C12.2252 62.8086 12.2252 62.8086 12.2252 62.8086C12.2252 66.1154 12.2252 66.1154 12.2252 66.1154C16.7293 63.3597 18.2919 62.9004 20.6818 62.9004C26.0131 62.9004 30.0576 67.8607 30.0576 74.7499C30.0576 82.6495 24.6343 88.069 16.3616 88.069C15.4424 88.069 13.8798 87.9772 12.2252 87.8853" fill="#00AA5D"/>
</g>
<defs>
<clipPath id="clip0_1_2838">
<rect width="130.525" height="99" fill="white"/>
</clipPath>
</defs>
</svg>
