<svg width="240" height="31" viewBox="0 0 240 31" fill="none" xmlns="http://www.w3.org/2000/svg">
<g clip-path="url(#clip0_1_2552)">
<path fill-rule="evenodd" clip-rule="evenodd" d="M225.958 23.201L228.291 26.5352C229.361 27.5863 228.675 29.1011 227.55 29.4276C227.303 29.5045 227.138 29.628 227.138 29.8228V30.2482L239.927 30.2452V29.7732C239.927 29.6415 239.872 29.4851 239.734 29.4329C239.652 29.411 239.57 29.3891 239.487 29.3616C238.17 28.9253 237.045 28.2639 235.975 26.8836L229.718 18.6262L232.517 15.141C234.356 13.0691 236.688 11.6559 238.06 11.3732C238.335 11.3183 238.39 11.1948 238.39 10.9588V10.5884H237.951L230.733 10.591H230.322C230.322 10.591 230.322 10.7885 230.322 10.9587C230.322 11.1672 230.404 11.3045 230.569 11.3923C230.624 11.4362 230.624 11.4389 230.679 11.4773C231.227 11.8094 231.694 12.6958 230.459 14.1365C230.459 14.1694 229.581 15.2506 228.318 16.7655V16.7435L226.507 14.2956C225.41 13.2144 226.178 11.6282 227.331 11.3675C227.605 11.3154 227.66 11.1947 227.66 10.9587V10.5854L227.221 10.588H215.174C215.174 10.588 215.146 10.7883 215.146 10.9585C215.146 11.2576 215.366 11.4085 215.64 11.4826C216.93 11.9161 218.055 12.5775 219.125 13.9469L224.559 21.3179L221.046 25.5577C219.208 27.6049 217.643 29.1526 216.381 29.4298C216.107 29.4874 215.969 29.6274 215.969 29.8222V30.2476L223.379 30.2446V29.7836C223.379 29.6491 223.324 29.5146 223.187 29.4406C223.077 29.3994 223.022 29.3775 222.967 29.3308C222.446 28.9796 222.034 28.1014 223.242 26.6963C223.242 26.6661 224.696 24.693 225.958 23.1782V23.2002" fill="#0D2860"/>
<path d="M64.5161 6.37621C63.8575 4.79555 62.156 4.12324 60.3449 4.12324H52.9904V13.9695L58.7807 13.9832C60.7565 13.9832 62.5403 13.6182 62.897 12.1308C62.9244 11.9552 63.0616 11.8263 63.2263 11.8235L63.5556 11.8261V18.7607L63.2263 18.7632C63.0616 18.7658 62.9519 18.615 62.8696 18.4174C62.403 17.1359 60.6467 16.5184 58.7807 16.5184H52.9904V24.4108C52.9904 26.7626 53.8411 27.3993 56.2011 27.3993H60.3449C62.2933 27.3993 64.4612 26.4443 65.2021 24.5892C65.257 24.4493 65.3668 24.3806 65.5314 24.3806H65.8059V30.2258H43.9344V29.8471C43.9344 29.6523 44.0717 29.4739 44.3461 29.4519C45.6908 29.3532 46.7335 27.9591 46.7335 25.8131V5.56351C46.7335 3.42027 45.6908 2.01799 44.3461 1.91645C44.0717 1.89446 43.9344 1.7161 43.9344 1.5213V1.14258H65.1198V6.58711H64.8454C64.7082 6.58162 64.571 6.49381 64.5161 6.37579" fill="#0D2860"/>
<path d="M79.033 30.2263L79.0605 29.8476C79.0605 29.6527 78.9233 29.4744 78.6214 29.4524C77.3042 29.3536 76.2339 27.9431 76.2339 25.7999V4.80111C76.2339 3.18752 76.2339 0.00146484 76.2339 0.00146484L67.7817 1.14307V1.52179C67.7817 1.71659 67.919 1.89494 68.1933 1.91691C69.538 2.01846 70.5808 3.41253 70.5808 5.55577C70.5808 5.50635 70.6083 25.8081 70.6083 25.8081C70.6083 27.9486 69.5381 29.3536 68.2208 29.4524C67.919 29.4743 67.7818 29.6527 67.7818 29.8476L67.8092 30.2263H79.033" fill="#0D2860"/>
<path d="M190.997 30.2263L191.025 29.8476C191.025 29.6527 190.888 29.4744 190.586 29.4524C189.269 29.3536 188.198 27.9431 188.198 25.7999V4.80111C188.198 3.18752 188.198 0.00146484 188.198 0.00146484L179.746 1.14307V1.52179C179.746 1.71659 179.883 1.89494 180.158 1.91691C181.475 2.01846 182.545 3.41253 182.545 5.55577C182.545 5.50635 182.573 25.8081 182.573 25.8081C182.573 27.9486 181.502 29.3536 180.185 29.4524C179.883 29.4743 179.746 29.6527 179.746 29.8476V30.2263H190.997" fill="#0D2860"/>
<path d="M147.611 10.2429C147.611 10.2429 147.611 13.02 147.611 14.6363C148.489 13.0172 150.218 9.86963 153.95 9.86963C154.636 9.86963 155.185 10.0178 155.569 10.1605L154.005 15.5721C153.813 15.5721 152.359 15.5721 151.618 15.5721C149.203 15.5721 147.694 17.1363 147.694 19.0628V25.7971C147.694 27.9403 148.764 29.3536 150.081 29.4524C150.383 29.4743 150.52 29.6527 150.493 29.8475V30.2262H139.324V29.8475C139.324 29.6527 139.461 29.4743 139.763 29.4524C141.08 29.3536 142.15 27.9458 142.15 25.8026C142.15 24.2328 142.15 17.6742 142.15 15.7916C142.15 13.6511 141.245 12.3614 139.763 12.1528C139.543 12.1254 139.324 11.8839 139.324 11.6753C139.324 11.4667 139.324 11.3817 139.324 11.3817L147.611 10.2429Z" fill="#0D2860"/>
<path d="M214.762 30.2456H209.603C207.847 30.2456 207.326 29.1425 207.326 28.2232C205.048 29.9603 203.401 30.7039 200.438 30.8082C197.117 30.9125 194.071 28.8516 194.071 25.1606L194.044 15.8055C194.044 13.6596 192.973 12.2655 191.656 12.164C191.382 12.142 191.217 11.9636 191.244 11.7716V11.3901L199.889 10.2485V22.4136C199.889 27.8527 205.24 27.2737 207.326 25.7397V15.8001C207.326 13.6568 206.255 12.2655 204.938 12.164C204.636 12.142 204.499 11.9636 204.499 11.7716V11.3901L213.143 10.2485V25.7781C213.143 27.4548 213.473 29.1809 214.79 29.4608C215.009 29.5074 215.174 29.6035 215.174 29.9081C215.174 30.07 215.174 30.2456 215.174 30.2456H214.762" fill="#0D2860"/>
<path d="M121.157 16.4037V11.2913C121.157 11.2913 118.193 9.94385 113.419 9.94385C107.189 9.94385 102.881 13.0997 102.826 20.7616C102.771 26.8153 106.311 30.8658 113.172 30.8658C117.7 30.8658 120.334 28.6292 121.294 27.7291C121.898 27.2791 121.898 26.8729 121.898 26.3598C121.898 25.8466 121.926 24.9438 121.926 24.9438C120.087 26.2774 117.59 27.194 115.175 27.194C110.208 27.194 108.753 23.6787 108.753 19.7791C108.753 18.171 109.275 12.6853 113.912 12.6332C116.904 12.6332 118.605 13.536 120.361 16.4641C120.663 16.9087 120.855 17.0047 121.157 16.9416V16.4037" fill="#0D2860"/>
<path d="M167.315 12.592C163.611 12.592 162.568 15.4899 162.568 20.0481C162.568 23.7226 162.623 28.3301 167.37 28.3301C171.925 28.2259 171.871 24.3922 171.871 20.2018C171.871 15.3088 170.663 12.6195 167.315 12.592ZM166.986 9.84508C171.788 9.76821 178.32 10.9812 178.374 19.9959C178.374 27.0321 175.74 30.8658 167.068 30.8658C161.058 30.8658 156.174 29.5156 156.174 20.4597C156.119 11.2501 162.842 9.89994 166.986 9.8478V9.84526" fill="#0D2860"/>
<path d="M100.328 19.6859H86.6347C86.3603 25.8961 89.7357 27.1364 93.0013 27.1886C95.773 27.1886 97.886 26.2391 99.6972 24.9685C99.6972 24.9685 99.6972 26.2199 99.6972 26.541C99.6972 26.8648 99.5326 27.12 99.4502 27.2737C98.2153 28.9367 95.0595 30.8686 90.7236 30.8686C84.7961 30.8686 80.6523 27.8143 80.6523 20.8248C80.6523 13.1464 84.9059 9.9851 90.8334 9.95215C96.953 9.95215 100.109 12.8363 100.328 19.1261V19.6859ZM90.7785 12.2299C88.885 12.3341 87.1561 13.1602 86.6347 17.2518H94.7302C94.7851 13.0559 92.672 12.3341 90.7236 12.2299H90.7785Z" fill="#0D2860"/>
<path d="M137.348 11.4968V10.6022H131.036V4.75977L122.694 13.4013H125.355V24.8584C125.355 26.8123 125.959 30.9314 131.475 30.9835C133.917 30.9835 135.646 30.1109 136.991 28.9281C137.485 28.5274 137.485 28.2723 137.512 27.8744C137.54 27.5313 137.512 27.1306 137.512 26.4583C134.027 28.4232 131.036 27.1883 131.036 23.3766V13.4013H135.509C136.387 13.2586 137.348 12.7784 137.348 11.4968Z" fill="#0D2860"/>
<path fill-rule="evenodd" clip-rule="evenodd" d="M29.8847 0.612793H0.00012207V30.4836H29.8847V0.612793ZM18.8803 28.7904V2.30319C24.5883 3.99365 28.7595 9.31745 28.7595 15.5386C28.7595 21.7817 24.5883 27.0808 18.8803 28.7904ZM1.15269 14.902C1.48199 7.57212 7.54673 1.74067 14.9561 1.74067C15.8343 1.74067 16.7124 1.82575 17.5631 1.99038C17.5631 9.15826 11.7728 14.902 4.58295 14.902H1.15269ZM4.58295 16.1917C11.7728 16.1917 17.5631 21.9244 17.5631 29.106C16.7124 29.2679 15.8343 29.353 14.9561 29.353C7.54673 29.353 1.48199 23.5215 1.15269 16.1917H4.58295Z" fill="#0D2860"/>
</g>
<defs>
<clipPath id="clip0_1_2552">
<rect width="239.927" height="30.9838" fill="white"/>
</clipPath>
</defs>
</svg>
