<svg width="125" height="34" viewBox="0 0 125 34" fill="none" xmlns="http://www.w3.org/2000/svg">
<path d="M73.1992 3.46729C74.868 3.46729 76.2435 4.57226 76.2435 6.24098C76.2435 7.90971 74.8454 9.28528 73.1992 9.28528C71.8011 9.28528 70.4255 7.90971 70.4255 6.24098C70.4255 4.57226 71.8237 3.46729 73.1992 3.46729Z" fill="#465462"/>
<path d="M113.159 19.2297C113.159 21.7102 114.827 23.379 116.767 23.379C118.706 23.379 119.54 22.274 120.104 21.169C120.104 21.169 120.375 20.8984 120.668 20.8984C124.276 22.0034 124.276 22.0034 124.276 22.0034C124.547 22.274 124.547 22.274 124.547 22.5671C123.712 25.3408 120.938 27.8214 116.789 27.8214C112.076 27.8214 108.198 24.2133 108.198 19.2522C108.198 14.2686 112.076 10.6831 116.789 10.6831C120.961 10.6831 123.442 13.1636 124.276 15.9373C124.547 16.2079 124.276 16.5011 124.005 16.5011C120.397 17.6061 120.397 17.6061 120.397 17.6061C120.397 17.6061 120.127 17.6061 119.833 17.3355C119.563 16.2305 118.458 15.3961 116.789 15.3961C114.805 15.351 113.159 16.7266 113.159 19.2297Z" fill="#465462"/>
<path d="M98.1625 10.6611C93.4495 10.6611 89.5708 14.2466 89.5708 19.2303C89.5708 24.2139 93.4495 27.7994 98.1625 27.7994C102.875 27.7994 106.754 24.1913 106.754 19.2303C106.777 14.2466 102.875 10.6611 98.1625 10.6611ZM98.1625 23.3795C96.2231 23.3795 94.5544 22.004 94.5544 19.2303C94.5544 16.4566 96.2231 15.3516 98.1625 15.3516C100.102 15.3516 101.771 16.4566 101.771 19.2303C101.771 22.004 100.102 23.3795 98.1625 23.3795Z" fill="#465462"/>
<path d="M88.7366 15.6217C88.7366 15.8923 88.466 15.8923 88.466 15.8923C87.9023 15.8923 87.6316 15.8923 87.361 15.8923C85.4217 15.8923 83.753 16.9973 83.753 20.3122C83.753 26.942 83.753 26.942 83.753 26.942C83.753 27.2126 83.4824 27.2126 83.1892 27.2126C79.0174 27.2126 79.0174 27.2126 79.0174 27.2126C78.7468 27.2126 78.7468 27.2126 78.7468 26.942C78.7468 11.7205 78.7468 11.7205 78.7468 11.7205C78.7468 11.4499 78.7468 11.1793 79.0174 11.1793C82.8961 11.1793 82.8961 11.1793 82.8961 11.1793C83.1667 11.1793 83.4599 11.4499 83.4599 11.7205C83.4599 13.3892 83.4599 13.3892 83.4599 13.3892C84.2942 11.4499 86.2335 10.9087 87.6091 10.9087C87.8797 10.9087 88.7141 11.1793 88.9847 11.1793C89.2553 11.1793 89.5484 11.4499 89.2553 11.7205L88.7366 15.6217Z" fill="#465462"/>
<path d="M70.989 26.9643C70.989 11.7429 70.989 11.7429 70.989 11.7429C70.989 11.4723 70.989 11.2017 71.2596 11.2017C75.4089 11.2017 75.4089 11.2017 75.4089 11.2017C75.6795 11.2017 75.6795 11.4723 75.6795 11.7429C75.6795 26.9643 75.6795 26.9643 75.6795 26.9643C75.6795 27.235 75.6795 27.2349 75.4089 27.2349C71.2596 27.2349 71.2596 27.2349 71.2596 27.2349C70.989 27.2575 70.989 27.2575 70.989 26.9643Z" fill="#465462"/>
<path d="M61.5633 10.9316C59.0603 10.9316 57.4141 11.766 56.5797 12.871C56.5797 11.766 56.5797 11.766 56.5797 11.766C56.5797 11.4954 56.5797 11.2248 56.3091 11.2248C52.4305 11.2248 52.4305 11.2248 52.4305 11.2248C52.1599 11.2248 51.8667 11.4954 51.8667 11.766C51.8667 33.0761 51.8667 33.0761 51.8667 33.0761C51.8667 33.3467 52.1373 33.6398 52.4305 33.6398C56.3091 33.6398 56.3091 33.6398 56.3091 33.6398C56.5797 33.6398 56.8503 33.3692 56.8503 33.0761C56.8503 26.1531 56.8503 26.1531 56.8503 26.1531C57.6847 26.9875 59.0603 27.8218 61.2927 27.8218C65.7352 27.8218 69.0501 24.2138 69.0501 19.2527C69.0501 14.2465 66.2764 10.9316 61.5633 10.9316ZM60.4584 23.3794C58.519 23.3794 56.8503 22.0039 56.8503 19.2302C56.8503 16.4565 58.519 15.3515 60.4584 15.3515C62.3977 15.3515 64.0664 16.4565 64.0664 19.2302C64.0439 22.0039 62.3977 23.3794 60.4584 23.3794Z" fill="#465462"/>
<path d="M35.2021 26.9649C35.2021 4.84306 35.2021 4.84306 35.2021 4.84306C35.2021 4.57245 35.2022 4.2793 35.4728 4.2793C49.3412 4.2793 49.3412 4.2793 49.3412 4.2793C49.6118 4.2793 49.6118 4.5499 49.6118 4.84306C49.6118 8.72171 49.6118 8.72172 49.6118 8.72172C49.6118 8.99232 49.6118 9.26292 49.3412 9.26292C40.7495 9.26292 40.7495 9.26292 40.7495 9.26292C40.4789 9.26292 40.1858 9.26292 40.1858 9.53352C40.1858 13.1416 40.1858 13.1416 40.1858 13.1416C40.1858 13.4122 40.4564 13.4122 40.7495 13.4122C48.5069 13.4122 48.5068 13.4122 48.5068 13.4122C48.5068 13.4122 48.7775 13.6828 48.7775 13.9759C48.7775 17.5614 48.7775 17.5614 48.7775 17.5614C48.7775 17.8321 48.5068 18.1252 48.5068 18.1252C40.7495 18.1252 40.7495 18.1252 40.7495 18.1252C40.4789 18.1252 40.1858 18.1252 40.1858 18.3958C40.1858 21.9813 40.1858 21.9813 40.1858 21.9813C40.1858 22.2519 40.4564 22.5451 40.7495 22.5451C49.3412 22.5451 49.3412 22.5451 49.3412 22.5451C49.6118 22.5451 49.6118 22.5451 49.6118 22.8157C49.6118 26.9649 49.6118 26.9649 49.6118 26.9649C49.6118 27.2355 49.6118 27.2355 49.3412 27.2355C35.4728 27.2355 35.4728 27.2355 35.4728 27.2355C35.2022 27.2581 35.2021 27.2581 35.2021 26.9649Z" fill="#465462"/>
<path d="M27.4447 12.8706C27.4447 8.72135 27.4447 8.72135 27.4447 8.72135C27.4447 7.88698 26.881 7.34578 26.3398 6.78202C22.4611 4.57208 18.5825 2.36215 14.9744 0.422819C14.14 -0.14094 13.3057 -0.14094 12.4713 0.422819C8.86326 2.36215 4.9846 4.57208 1.37654 6.78202C0.542179 7.34578 0.000976562 7.88698 0.000976562 8.72135C0.000976562 22.0035 0.000976562 22.0035 0.000976562 22.0035C0.000976562 22.8379 0.56473 23.3791 1.37654 23.9428C4.9846 26.1528 8.86326 28.3627 12.4713 30.302C13.3057 30.8658 14.14 30.8658 14.9744 30.302C18.5825 28.3627 22.4611 26.1528 26.3398 23.9428C26.9035 23.3791 27.4447 22.8379 27.4447 22.0035C27.4447 15.9149 27.4447 15.9149 27.4447 15.9149C22.7317 18.6886 18.2893 21.4397 13.8469 24.2134C11.0732 22.5447 8.57011 21.1691 6.08957 19.7936C6.08957 10.9313 6.08957 10.9313 6.08957 10.9313C8.2995 9.55571 10.8026 8.45074 13.0351 7.05262C13.5988 6.78201 14.14 6.78201 14.4106 7.05262C16.9137 8.42819 19.1237 9.82631 21.3336 10.9313C18.8305 12.3068 16.6206 13.705 14.4106 15.0805C13.8469 15.3511 13.3057 15.3511 12.7419 15.0805C11.0732 13.9756 9.40446 13.1412 7.75829 12.0362C7.75829 18.9592 7.75829 18.9592 7.75829 18.9592C9.69762 20.0642 11.637 21.1691 13.5763 22.0035C17.7481 19.7936 21.8974 17.2905 26.3398 14.8099C26.881 14.5168 27.4447 13.705 27.4447 12.8706Z" fill="#465462"/>
</svg>
