<svg width="99" height="23" viewBox="0 0 99 23" fill="none" xmlns="http://www.w3.org/2000/svg">
<g clip-path="url(#clip0_1_2125)">
<path d="M98.3095 7.53013L98.0257 10.9357H96.6349C94.4144 10.9357 93.2603 12.7157 93.2603 14.4216V22.1132H89.3246V7.53013H93.0524L93.1371 9.35031C93.9192 8.10214 95.2879 7.53013 96.9757 7.53013H98.3095ZM71.0242 22.1131H67.0851V14.4038C67.0851 12.7893 66.9456 10.7573 64.6748 10.7573C62.4878 10.7573 61.6166 12.3356 61.6166 14.1734V22.1131H57.6787V7.53H61.3297L61.4131 9.39432C62.1956 8.14614 63.653 7.17426 65.8029 7.17426C69.7716 7.17426 71.0242 10.0078 71.0242 12.9566V22.1131ZM55.9611 18.7065L55.6857 22.0247C54.7412 22.278 53.9026 22.369 52.8879 22.369C49.1765 22.369 48.1 20.6671 48.1 17.2465V3.41768H52.0387V7.53031H55.958L55.6857 10.9354H52.0387V16.9503C52.0387 18.323 52.4152 19.0645 53.8231 19.0645C54.4353 19.0645 55.1163 18.9908 55.9611 18.7065ZM46.8067 7.53013L46.5017 10.9357H45.4314C43.2153 10.9357 42.1132 12.7135 42.1132 14.4216V22.1132H38.1741V7.53013H41.9036L41.9813 9.35031C42.7678 8.10214 44.1364 7.53013 45.8264 7.53013H46.8067ZM20.3993 20.4975C17.7277 21.9266 15.0592 22.7511 11.5345 22.6487C5.00009 22.4492 0.285889 18.3917 0.285889 11.5382C0.285889 4.71475 5.04556 0.354971 11.5376 0.252575C14.8284 0.202259 17.7732 1.03732 20.0749 3.06848L17.3022 5.87333C15.878 4.65914 13.7823 3.94944 11.2781 4.06287C7.19235 4.25309 4.73042 7.22214 4.67613 11.3043C4.62272 15.7272 7.33491 18.7753 11.5746 18.8865C13.5696 18.9364 14.9987 18.6685 16.2354 18.1132V13.5924H11.8289L12.1264 9.88445H20.3993V20.4975ZM87.5657 16.2075H76.7668C77.0745 18.071 78.5393 19.192 80.3635 19.2428C82.1369 19.2909 83.1291 18.7551 84.4262 17.4416L86.9963 19.4012C85.1699 21.6509 82.9781 22.4696 80.4813 22.4696C76.0898 22.4696 72.7998 19.399 72.7998 14.8212C72.7998 10.2482 76.0734 7.17412 80.3171 7.17412C84.9943 7.17412 87.5657 10.0077 87.5657 15.0375V16.2075ZM83.6199 13.1586C83.4989 11.3163 82.1188 10.1516 80.2178 10.2257C78.3045 10.2981 77.0308 11.5441 76.7668 13.1586H83.6199ZM35.6944 12.5637V22.1131H32.2217L32.1357 20.6751C31.0702 21.9948 29.3405 22.4697 27.5596 22.4697C24.8779 22.4697 22.344 21.1474 22.2911 18.0675C22.2112 13.2266 27.7392 12.8828 31.211 12.8828H31.9048V12.6913C31.9048 11.0904 30.8456 10.2258 28.851 10.2258C27.4193 10.2258 26.006 10.8 24.9609 11.7798L22.6883 9.47107C24.7517 7.7983 26.8984 7.17422 29.1856 7.17422C33.703 7.17422 35.6944 9.26187 35.6944 12.5637ZM31.9048 15.7534H31.3571C29.4923 15.7574 26.217 15.8492 26.2293 17.7992C26.247 20.5462 31.9048 19.6732 31.9048 16.3603V15.7534ZM95.237 20.4167C95.237 19.4885 95.9374 18.789 96.8356 18.789C97.7228 18.789 98.4245 19.4885 98.4245 20.4167C98.4245 21.3612 97.7228 22.0586 96.8356 22.0586C95.9374 22.0586 95.237 21.3612 95.237 20.4167ZM96.8356 22.3848C97.905 22.3848 98.8173 21.5541 98.8173 20.4167C98.8173 19.2908 97.905 18.4619 96.8356 18.4619C95.7565 18.4619 94.8433 19.2908 94.8433 20.4167C94.8433 21.5541 95.7565 22.3848 96.8356 22.3848ZM96.4203 20.5738H96.8153L97.4107 21.5541H97.7956L97.1525 20.5579C97.4849 20.5173 97.7387 20.339 97.7387 19.9343C97.7387 19.4885 97.4743 19.2908 96.9393 19.2908H96.0787V21.5541H96.4203V20.5738ZM96.4203 20.2821V19.5825H96.8868C97.126 19.5825 97.3803 19.6342 97.3803 19.9144C97.3803 20.2618 97.1207 20.2821 96.8312 20.2821H96.4203Z" fill="white"/>
</g>
<defs>
<clipPath id="clip0_1_2125">
<rect width="99" height="22.77" fill="white" transform="translate(-0.00012207)"/>
</clipPath>
</defs>
</svg>
