<svg width="91" height="91" viewBox="0 0 91 91" fill="none" xmlns="http://www.w3.org/2000/svg">
<path d="M71.7522 44.8736L71.3536 44.8166C72.8911 43.8486 74.087 42.311 74.087 39.6345V39.5776C74.087 37.8692 73.5745 36.5025 72.5494 35.3636C71.2397 33.9399 69.2466 33.1996 66.627 33.1996H61.5019L56.092 37.4136V57.8573H67.8798C73.4606 57.8573 77.1051 55.5795 77.1051 51.0807V51.0238C77.1051 47.7209 74.9412 45.2722 71.7522 44.8736ZM60.9894 37.9262H65.8867C67.9937 37.9262 69.1327 38.8373 69.1327 40.4318V40.4887C69.1327 42.311 67.766 43.1083 65.5451 43.1083H60.9324V37.9262H60.9894ZM71.7522 50.4543C71.7522 52.2766 70.3285 53.1308 67.9368 53.1308H61.5019V47.7209H67.766C70.5563 47.7209 71.8091 48.7459 71.8091 50.3974V50.4543H71.7522ZM14.6352 33.1996H20.0451V42.9374H30.0676V33.1996H35.4775V53.5864L30.0676 57.9143V48.0056H20.0451V57.9143H14.6352C14.6352 57.8573 14.6352 33.1996 14.6352 33.1996ZM38.7234 33.1996H44.1333V52.96H53.5864V57.9143H38.7234C38.7234 57.8573 38.7234 33.1996 38.7234 33.1996ZM81.433 17.5964C73.1189 6.89049 60.0782 0 45.5 0C20.3867 0 0 20.4437 0 45.5C0 49.771 0.569462 53.8711 1.70839 57.8004H8.2572C7.00438 53.928 6.26408 49.8279 6.26408 45.5C6.26408 23.8605 23.8605 6.26408 45.5 6.26408C58.0851 6.26408 69.3035 12.1865 76.4787 21.4118C81.6608 28.0745 84.679 36.3886 84.679 45.4431C84.679 67.0826 67.0826 84.679 45.4431 84.679C32.9718 84.679 21.8104 78.8135 14.6352 69.7021L9.68085 73.5745C18.1089 84.1665 31.0357 91 45.5 91C70.6133 91 91 70.5563 91 45.4431C91 34.965 87.4693 25.2841 81.433 17.5964ZM8.2572 57.8004H1.70839C1.70839 57.8573 1.70839 57.8573 1.70839 57.9143H8.2572C8.31414 57.8573 8.2572 57.8573 8.2572 57.8004ZM14.6921 69.7591L9.7378 73.6314L9.79474 73.6884L14.7491 69.816C14.6921 69.816 14.6921 69.7591 14.6921 69.7591Z" fill="#00AA5D"/>
</svg>
