<svg width="120" height="47" viewBox="0 0 120 47" fill="none" xmlns="http://www.w3.org/2000/svg">
<g clip-path="url(#clip0_1_2830)">
<path d="M107.488 45.3031L107.066 45.4816C105.378 46.1309 100.443 46.6504 97.294 46.6504C94.3398 46.6504 90.3954 45.5466 88.1067 42.4787C87.2302 41.2938 86.3861 39.4433 86.3699 36.8299H83.3832L81.0945 46.0173H73.3258L76.0593 36.8299H73.5888L67.6608 46.0173H61.4148L60.8596 36.8299H58.105L55.3878 46.0173H48.7375L51.5554 36.8299H35.8964V36.6839L33.1029 46.0336H26.016L28.7916 36.8299H20.1367L24.4415 46.0336H16.2524L12.5369 36.8299H10.3196C8.93175 41.3587 7.83933 44.9947 7.75817 45.2869L7.61209 46.0336H-0.000732422L6.9693 22.8379V-0.000545502H33.0996V22.562L34.0946 19.2345H35.8964V-0.000545502H61.965V19.2345H64.7634V-0.000545502H90.8337V24.3151C91.7102 23.1139 92.6517 22.1562 93.6418 21.4095V-0.000545502H119.694V36.8299H109.858L107.488 45.3031ZM93.6743 36.8299C93.6905 38.0149 93.9178 39.0213 94.4372 39.6868C95.1839 40.6932 96.4987 41.1801 98.3653 41.1801C100.443 41.1801 101.222 40.9529 101.482 40.8555L102.764 36.8299H93.6743Z" fill="#0E2A83"/>
<path d="M46.5009 27.6912C45.6584 30.2234 44.5124 31.5221 40.7645 31.6032C39.5211 31.6194 38.1641 31.587 36.3153 31.587L38.5991 23.7469C44.2235 23.7469 47.9634 23.2924 46.5009 27.6912ZM14.3793 20.1758H8.73542L1.25732 45.092H6.84601C6.95314 44.5726 14.3793 20.1758 14.3793 20.1758ZM29.0401 20.1758H22.1755L11.2611 31.1812L11.2579 31.1649L11.2595 31.1812H11.2579H11.2595H11.2611L16.8807 45.092H22.9644L16.694 31.7006L29.0401 20.1758ZM51.6594 27.6912C53.0797 20.0135 46.8888 20.1109 41.1427 20.1758H34.7878L27.274 45.092H32.4017L35.343 35.2392H39.448C47.405 35.2554 50.9208 31.7168 51.6594 27.6912ZM86.5648 20.1758H78.3838C68.4303 33.973 66.0247 41.7157 66.0247 41.7157C66.9776 32.9504 65.7358 20.1758 65.7358 20.1758H57.6344L50.0054 45.0758H54.6932L61.0058 23.7469L62.2946 45.0758H67.1447L80.916 23.7469L74.5888 45.0758H80.3479L86.5648 20.1758ZM102.797 19.6402C97.7811 19.6402 91.5642 20.7602 87.9932 32.5285C84.9902 42.3651 92.2622 45.7251 97.2941 45.7251C100.605 45.7251 105.313 45.157 106.709 44.6051L110.247 32.0253H99.6802L98.5115 35.7911H104.063L102.342 41.245C102.342 41.245 102.57 42.1053 98.3817 42.1215C93.09 42.1378 91.6291 38.4531 93.366 32.3986C94.9729 26.7661 97.5538 23.0164 102.294 23.2437C105.524 23.3898 107.342 24.591 106.449 27.5615C106.4 27.7562 106.368 28.016 106.287 28.1783L111.416 28.1944C112.715 24.3799 110.117 19.6402 102.797 19.6402Z" fill="white"/>
</g>
<defs>
<clipPath id="clip0_1_2830">
<rect width="119.695" height="46.6508" fill="white"/>
</clipPath>
</defs>
</svg>
