<svg width="103" height="24" viewBox="0 0 103 24" fill="none" xmlns="http://www.w3.org/2000/svg">
<g id="Logo_white&#38;green">
<path id="Path" d="M12.6621 11.3873L15.2537 14.6305L20.7332 8.6486L23.547 5.54952C22.8806 4.68466 22.2142 3.8198 21.3996 3.17115C19.1782 1.22522 16.2904 0 13.1064 0C6.29401 0 0.814519 5.40537 0.814519 11.9639C0.814519 14.126 1.4069 16.2161 2.5176 18.0179L5.25735 14.4864C4.96116 13.6936 4.81307 12.8288 4.81307 11.9639C4.81307 7.49545 8.58947 3.8198 13.1804 3.8198C15.3278 3.8198 17.327 4.61259 18.808 5.98195L15.9942 9.00895L13.1064 5.47744L5.47949 15.2071L2.81379 18.5945L0 22.1981L3.33212 19.3873L6.36806 16.7927L12.6621 11.3873Z" fill="#00AA5D"/>
<path id="Path_2" d="M13.1063 20.1081C10.5887 20.1081 8.2932 18.9549 6.7382 17.2252L3.70227 19.8198C5.99773 22.4144 9.32986 23.9999 13.0322 23.9999C17.1048 23.9999 20.6591 22.1261 22.8805 19.1711L19.4743 17.0811C18.0674 18.8828 15.6979 20.1081 13.1063 20.1081Z" fill="#00AA5D"/>
<path id="Path_3" d="M28.1374 6.63086H29.3221V16.7209H28.1374V6.63086Z" fill="white"/>
<path id="Shape" fill-rule="evenodd" clip-rule="evenodd" d="M34.8756 9.44141C32.6542 9.44141 31.0992 11.027 31.0992 13.1171C31.0992 15.3513 32.7283 16.9369 34.9497 16.9369C36.5047 16.9369 37.7635 16.2161 38.3559 14.9909L37.3933 14.4864C36.949 15.3513 35.9864 15.8558 34.9497 15.8558C33.4688 15.8558 32.4321 14.9189 32.284 13.5495H38.578V13.1171C38.578 10.9549 37.023 9.44141 34.8756 9.44141ZM34.8024 10.5225C36.2093 10.5225 37.1719 11.3873 37.3941 12.6125H32.2848C32.507 11.3873 33.4696 10.5225 34.8024 10.5225Z" fill="white"/>
<path id="Path_4" d="M40.0595 13.2614C40.0595 11.0992 41.6145 9.51367 43.7619 9.51367C45.539 9.51367 46.9459 10.5947 47.2421 12.0362L46.1314 12.1803C45.9093 11.1713 44.8726 10.5227 43.8359 10.5227C42.355 10.5227 41.2443 11.6037 41.3183 13.1893C41.3183 14.7749 42.4291 15.928 43.8359 15.928C44.9467 15.928 45.9093 15.2794 46.2055 14.2704L47.3902 14.4145C47.094 15.856 45.6131 16.9371 43.91 16.9371C41.5405 16.9371 39.9855 15.4235 40.0595 13.2614Z" fill="white"/>
<path id="Path_5" d="M49.3165 14.919V10.6668H48.1318V9.72983H49.3165L49.6127 7.49561H50.5013V9.72983H52.3525V10.6668H50.5013V14.8469C50.5013 15.4956 50.9456 16.0001 51.612 16.0001C51.8341 16.0001 52.2044 15.928 52.4265 15.8559V16.7928C52.0563 16.937 51.612 16.937 51.2418 16.937C50.131 16.937 49.3165 16.1442 49.3165 14.919Z" fill="white"/>
<path id="Path_6" d="M54.202 9.80186H55.3127V10.7388H55.4608C55.757 10.0901 56.5715 9.65771 57.386 9.65771C57.6822 9.65771 58.0524 9.72979 58.2746 9.80186V10.8829C57.9043 10.7388 57.46 10.6667 57.2379 10.6667C56.2012 10.6667 55.3867 11.6036 55.3867 12.973V16.7207H54.202V9.80186Z" fill="white"/>
<path id="Shape_2" fill-rule="evenodd" clip-rule="evenodd" d="M62.8666 9.51367C60.6451 9.51367 59.0901 11.0992 59.0901 13.2614C59.0901 15.4235 60.7192 16.937 62.8666 17.0091C65.088 17.0091 66.643 15.4235 66.643 13.2614C66.643 11.0272 65.088 9.51367 62.8666 9.51367ZM62.8679 10.5947C64.4229 10.5947 65.5336 11.6758 65.5336 13.2614C65.5336 14.7749 64.4229 15.928 62.8679 16.0001C61.3129 16.0001 60.2022 14.847 60.2022 13.2614C60.2022 11.7479 61.3129 10.5947 62.8679 10.5947Z" fill="white"/>
<path id="Path_7" d="M68.7904 7.06299H70.6416L75.3066 15.0629H75.4547V7.06299H76.7135V16.7206H74.8623L70.1973 8.72064H70.0492V16.7206H68.7904V7.06299Z" fill="white"/>
<path id="Shape_3" fill-rule="evenodd" clip-rule="evenodd" d="M82.564 9.44141C80.3426 9.44141 78.7876 11.027 78.7876 13.1171C78.7876 15.3513 80.4166 16.9369 82.6381 16.8648C84.193 16.8648 85.4518 16.1441 86.0442 14.9909L85.0816 14.4864C84.6373 15.3513 83.6747 15.8558 82.6381 15.8558C81.1571 15.8558 80.1204 14.9189 79.9724 13.5495H86.2664V13.1171C86.2664 10.9549 84.7114 9.44141 82.564 9.44141ZM82.4896 10.5225C83.8965 10.5225 84.8591 11.3873 85.0812 12.6125H79.972C80.1941 11.3873 81.1567 10.5225 82.4896 10.5225Z" fill="white"/>
<path id="Shape_4" fill-rule="evenodd" clip-rule="evenodd" d="M91.5217 9.44141C89.3003 9.44141 87.7453 11.027 87.7453 13.1171C87.7453 15.3513 89.3003 16.9369 91.5958 16.8648C93.1507 16.8648 94.4095 16.1441 95.0019 14.9909L94.0393 14.4864C93.595 15.3513 92.6324 15.8558 91.5958 15.8558C90.1148 15.8558 89.0781 14.9189 88.9301 13.5495H95.2241V13.1171C95.2241 10.9549 93.6691 9.44141 91.5217 9.44141ZM91.3738 10.5225C92.7807 10.5225 93.7433 11.3873 93.9655 12.6125H88.8562C89.0783 11.3873 90.041 10.5225 91.3738 10.5225Z" fill="white"/>
<path id="Path_8" d="M97.002 6.63086H98.1868V12.7569H98.3349L101.371 9.80201H102.926L99.4456 13.1173L103 16.7209H101.445L98.3349 13.4777H98.1868V16.7209H97.002V6.63086Z" fill="white"/>
</g>
</svg>
