<svg width="128" height="23" viewBox="0 0 128 23" fill="none" xmlns="http://www.w3.org/2000/svg">
<path d="M49.5883 11.5018C49.5883 15.9836 52.9094 19.2911 58.4529 19.2911C60.7914 19.2911 63.0003 18.9213 65.2831 17.8551L67.3561 20.6903C64.4877 22.2073 61.7263 23 57.4829 23C48.6354 23 42.1292 18.7396 42.1292 11.5036V11.5009C42.1292 4.26671 48.6354 0.0044384 57.4829 0.0044384C61.7263 0.0044384 64.1646 0.626175 67.1546 1.90746L65.0248 5.16469C62.7637 3.95989 60.7914 3.71332 58.4529 3.71332C52.9094 3.71332 49.5883 7.01372 49.5883 11.4964" fill="#C52A3E"/>
<path d="M83.3497 -0.000164032C74.7829 -0.000164032 68.6033 4.26388 68.6033 11.4999C68.6033 18.7386 74.7829 22.999 83.3497 22.999C91.9164 22.999 98.0943 18.7386 98.0943 11.4999C98.0943 4.26388 91.9164 -0.000164032 83.3497 -0.000164032ZM83.3497 19.4215C78.6357 19.4215 76.0336 15.88 76.0336 11.4963C76.0336 7.11259 78.6357 3.57379 83.3497 3.57379C88.0609 3.57379 90.663 7.11259 90.663 11.4963C90.663 15.88 88.0609 19.4215 83.3497 19.4215Z" fill="#C52A3E"/>
<path d="M120.368 13.1638V22.4189H127.448V0.579622H120.368V8.90342H109.547V0.579622H102.482V22.4189H109.547V13.1638H120.368Z" fill="#C52A3E"/>
<path d="M30.4045 22.4189H37.861V0.579622H30.4045V22.4189Z" fill="#C52A3E"/>
<path d="M9.02115 10.5752L9.01934 12.6645C12.5276 15.3755 16.1006 18.98 18.7216 22.4189H27.0661C24.1617 19.0088 19.7096 14.9544 16.429 12.9164C20.2782 12.7554 24.5737 11.1979 24.5737 6.77815C24.5737 1.10237 18.5102 0.0676231 12.3818 0.0676231C7.37545 0.0676231 2.75961 0.296183 0 0.523827V22.4189H6.95346V3.81698C8.24104 3.67931 9.62487 3.52635 12.4151 3.52635C15.9989 3.52635 17.8119 4.70867 17.8119 6.77815C17.8119 8.53992 17.0615 10.6517 9.02115 10.5752Z" fill="#C52A3E"/>
</svg>
