<svg width="89" height="32" viewBox="0 0 89 32" fill="none" xmlns="http://www.w3.org/2000/svg">
<path d="M77.7759 0.000488281C71.3536 0.000488281 67.16 4.39937 67.16 11.6722C67.16 20.7045 73.5823 23.2852 78.1865 23.2852C81.6469 23.2852 84.9314 21.8776 87.3068 19.3849L84.3449 16.423C82.7613 17.8306 80.9431 18.6811 78.2451 18.6811C74.6674 18.6811 72.2627 16.5989 72.2627 13.725H88.2159C88.1866 13.6956 90.9726 0.000488281 77.7759 0.000488281ZM72.2627 9.79532C72.2627 5.92431 75.1953 4.0768 78.3331 4.0768C81.471 4.0768 84.3156 5.98297 84.3156 9.79532H72.2627Z" fill="#5E3BC4"/>
<path d="M13.7245 9.41408C11.6717 9.15015 5.7772 9.38482 5.7772 6.68679C5.7772 5.10319 8.26989 4.22341 10.528 4.22341C12.9327 4.19404 15.2788 4.86859 17.2729 6.15893L20.3521 3.10903C19.443 2.37588 16.0706 0.000488281 10.528 0.000488281C5.48394 0.000488281 0.938425 2.63982 0.938425 6.86274C0.938425 13.3438 8.76843 13.3438 12.0236 13.6663C14.0178 13.8716 15.8066 13.9889 15.8066 15.9244C15.8066 17.7426 13.05 18.7397 10.9092 18.7397C7.41944 18.7397 5.33731 17.596 3.2845 15.7485L0 19.0623C2.84461 21.8189 6.6863 23.3145 10.6453 23.2852C16.5105 23.2852 20.7627 20.7045 20.7627 15.5139C20.7627 12.0827 18.446 10.0299 13.7245 9.41408Z" fill="#5E3BC4"/>
<path d="M32.3285 0.000566187C29.0733 -0.0288059 25.8768 1.08563 23.3254 3.1091L26.4046 6.18833C28.1349 4.89799 30.217 4.22349 32.3578 4.25281C36.2581 4.25281 37.4312 5.80708 37.4312 7.56664V9.76608H30.4809C27.9002 9.76608 22.8562 10.4113 22.8562 16.0711C22.8562 20.2354 25.2316 23.2853 30.9208 23.2853C33.7654 23.2853 35.9355 22.3762 37.4312 20.5873V22.8454H42.4752V7.91855C42.4752 2.69855 39.2787 0.000566187 32.3285 0.000566187ZM37.4605 14.6928C37.4605 19.0037 34.3813 18.7691 31.654 18.7691C28.9267 18.7691 27.1084 18.036 27.1084 16.1005C27.1084 14.3116 28.5454 13.6958 31.5367 13.6958H37.4605V14.6928Z" fill="#5E3BC4"/>
<path d="M59.8178 0.469709V2.9624C58.0876 0.997561 56.0348 0.000488281 53.2489 0.000488281C48.4687 0.000488281 46.0054 2.66915 45.1842 5.54308C44.8617 6.59881 44.7737 8.6223 44.7737 11.6135C44.7737 14.4288 44.803 17.0095 45.7708 18.9743C47.1491 21.731 50.4629 23.2852 53.2489 23.2852C55.9468 23.2852 58.2343 22.2295 59.8178 20.4113V21.8189C59.8178 23.4612 59.2607 24.5462 58.2049 25.3967C57.1492 26.2471 55.8295 26.775 53.982 26.775C52.3104 26.775 50.7268 25.8659 49.8177 25.2207L46.4159 28.6225C48.6154 30.4114 51.2254 31.6138 54.07 31.6431C56.7973 31.7017 59.4659 30.822 61.6067 29.0918C63.6302 27.5082 64.9205 24.4876 64.9205 21.3204V0.469709H59.8178ZM59.8178 11.6135C59.8178 13.3438 59.7885 14.6341 59.6419 15.3086C59.3193 16.7456 57.6771 18.6517 54.6858 18.6517C53.9234 18.6517 50.111 18.2118 49.6711 14.898C49.5538 13.813 49.4951 12.6986 49.5245 11.6135C49.5245 9.03287 49.6418 8.21172 49.7591 7.56656C50.023 6.27622 51.7239 4.34071 54.6858 4.34071C58.2929 4.34071 59.4659 6.80408 59.6419 7.77184C59.7885 9.03286 59.8472 10.3232 59.8178 11.6135Z" fill="#5E3BC4"/>
</svg>
