<svg width="83" height="83" viewBox="0 0 83 83" fill="none" xmlns="http://www.w3.org/2000/svg">
<g clip-path="url(#clip0_1_1804)">
<path d="M18.9755 3.21636V17.3198H40.6052C40.6052 17.3198 43.7586 12.875 47.729 9.5413C51.8855 6.05748 56.883 3.21636 56.883 3.21636H18.9755Z" fill="#5E3BC4"/>
<path d="M77.3455 79.5098V6.17538H72.9907L65.885 56.1381C65.885 56.1381 65.3564 61.0575 61.32 61.0575H49.9134V64.1629H31.1609V61.0575H21.0578C17.0214 61.0575 16.4928 56.1381 16.4928 56.1381L9.38102 6.17538H5.02625V79.5098H77.3455Z" fill="#5E3BC4"/>
<path d="M63.8482 2.90544V19.0271C63.8482 19.0271 54.2317 22.9975 51.3725 32.2656H34.7944C34.7944 32.2656 41.762 8.82793 63.8482 2.90544Z" fill="#5E3BC4"/>
<path d="M49.1433 63.3438H31.8624L32.0726 45.5282H49.1433V63.3438Z" fill="#5E3BC4"/>
<path d="M29.5504 41.8773V33.7143H25.9344V44.334H29.0459H29.5504H31.8449V41.8773H29.5504Z" fill="#5E3BC4"/>
<path d="M25.1052 36.1645V33.7139H22.7326H22.3001H19.1286V44.3335H22.3001H22.7326H25.1052V41.8768H22.7326V40.1169H25.1052V37.8524H22.7326V36.1645H25.1052Z" fill="#5E3BC4"/>
<path d="M45.2017 33.7127L43.9583 39.6833L42.739 33.7127H39.2432L41.0151 44.3384H42.9973H44.9074H45.8024L47.8866 33.7127H45.2017Z" fill="#5E3BC4"/>
<path d="M38.7547 36.1645V33.7139H36.3821H35.9496H32.7841V44.3335H35.9496H36.3821H38.7547V41.8768H36.3821V40.1169H38.7547V37.8524H36.3821V36.1645H38.7547Z" fill="#5E3BC4"/>
<path d="M54.4756 36.1645V33.7139H52.109H51.6706H48.4991V44.3335H51.6706H52.109H54.4756V41.8768H52.109V40.1169H54.4756V37.8524H52.109V36.1645H54.4756Z" fill="#5E3BC4"/>
<path d="M59.8657 44.3359V36.9478L59.1028 36.179L58.34 36.9478V44.3359H55.0244V33.7103H58.316V34.0947H58.328L58.7064 34.1428C59.1148 33.9385 59.7275 33.3799 61.043 33.3799C62.4905 33.3799 63.4216 34.5452 63.4216 35.8366V38.029V38.2873V44.3359H59.8657Z" fill="#5E3BC4"/>
</g>
<defs>
<clipPath id="clip0_1_1804">
<rect width="82.3284" height="82.3284" fill="white" transform="translate(0.000976562)"/>
</clipPath>
</defs>
</svg>
