<svg width="83" height="83" viewBox="0 0 83 83" fill="none" xmlns="http://www.w3.org/2000/svg">
<g clip-path="url(#clip0_1_2566)">
<path d="M18.9756 3.21636V17.3198H40.6053C40.6053 17.3198 43.7588 12.875 47.7291 9.5413C51.8857 6.05748 56.8831 3.21636 56.8831 3.21636H18.9756Z" fill="#E68938"/>
<path d="M77.3456 79.5098V6.17538H72.9909L65.8851 56.1381C65.8851 56.1381 65.3565 61.0575 61.3201 61.0575H49.9136V64.1629H31.161V61.0575H21.0579C17.0215 61.0575 16.4929 56.1381 16.4929 56.1381L9.38114 6.17538H5.02637V79.5098H77.3456Z" fill="#387F63"/>
<path d="M63.8483 2.90544V19.0271C63.8483 19.0271 54.2317 22.9975 51.3726 32.2656H34.7944C34.7944 32.2656 41.7621 8.82793 63.8483 2.90544Z" fill="#DA3535"/>
<path d="M49.1435 63.3438H31.8625L32.0728 45.5282H49.1435V63.3438Z" fill="#DA3535"/>
<path d="M29.5505 41.8773V33.7143H25.9346V44.334H29.046H29.5505H31.845V41.8773H29.5505Z" fill="#387F63"/>
<path d="M25.1052 36.1645V33.7139H22.7326H22.3001H19.1287V44.3335H22.3001H22.7326H25.1052V41.8768H22.7326V40.1169H25.1052V37.8524H22.7326V36.1645H25.1052Z" fill="#387F63"/>
<path d="M45.2019 33.7127L43.9586 39.6833L42.7392 33.7127H39.2434L41.0154 44.3384H42.9975H44.9076H45.8026L47.8869 33.7127H45.2019Z" fill="#387F63"/>
<path d="M38.7547 36.1645V33.7139H36.3821H35.9496H32.7842V44.3335H35.9496H36.3821H38.7547V41.8768H36.3821V40.1169H38.7547V37.8524H36.3821V36.1645H38.7547Z" fill="#387F63"/>
<path d="M54.4758 36.1645V33.7139H52.1092H51.6707H48.4993V44.3335H51.6707H52.1092H54.4758V41.8768H52.1092V40.1169H54.4758V37.8524H52.1092V36.1645H54.4758Z" fill="#387F63"/>
<path d="M59.8657 44.3359V36.9478L59.1029 36.179L58.34 36.9478V44.3359H55.0244V33.7103H58.316V34.0947H58.328L58.7064 34.1428C59.1149 33.9385 59.7276 33.3799 61.043 33.3799C62.4906 33.3799 63.4216 34.5452 63.4216 35.8366V38.029V38.2873V44.3359H59.8657Z" fill="#387F63"/>
</g>
<defs>
<clipPath id="clip0_1_2566">
<rect width="82.3284" height="82.3284" fill="white" transform="translate(0.000976562)"/>
</clipPath>
</defs>
</svg>
