<svg width="129" height="43" viewBox="0 0 129 43" fill="none" xmlns="http://www.w3.org/2000/svg">
<path fill-rule="evenodd" clip-rule="evenodd" d="M4.93977 7.85097C3.4021 9.66322 2.23237 11.7446 1.37292 14.0017C0.47503 16.3548 0 18.7767 0 21.3578C0 24.2684 0.626052 26.9703 1.70242 29.5376C2.76506 32.0775 4.22585 34.2605 6.14794 36.1826C8.01511 38.047 10.2118 39.5297 12.7352 40.6281C15.2614 41.7264 18.0072 42.3305 20.8629 42.3305C23.7735 42.3305 26.4699 41.7456 29.0428 40.6281C31.5223 39.5517 33.7354 38.0744 35.63 36.1826C37.5247 34.2879 38.9662 32.0583 40.0234 29.5376C41.108 26.951 41.7258 24.2684 41.7258 21.3578C41.7258 18.7767 41.248 16.3548 40.3529 14.0017C39.4934 11.7446 38.3347 9.70716 36.7833 7.85097C35.2593 6.03047 33.48 4.51752 31.4591 3.35053C28.2904 1.5218 25.0338 0.439941 21.2473 0.439941C21.0633 0.439941 20.8794 0.439941 20.6982 0.439941C16.9638 0.439941 13.548 1.51082 10.3216 3.35053C8.29244 4.50653 6.47744 6.04146 4.93977 7.85097Z" fill="white" fill-opacity="0.2"/>
<path fill-rule="evenodd" clip-rule="evenodd" d="M91.3017 8.07031C89.2698 8.07031 87.4026 8.40256 85.6453 9.11373C83.888 9.82765 82.353 10.8162 81.035 12.1342C79.717 13.4522 78.6736 14.9349 78.0146 16.6373C77.3007 18.337 76.9712 20.2042 76.9712 22.2361C76.9712 24.1582 77.3007 26.0254 78.0146 27.725C78.6736 29.3725 79.717 30.9102 81.035 32.2282C82.408 33.4913 83.9429 34.5347 85.7002 35.2486C87.4026 35.9076 89.3247 36.2921 91.3017 36.2921C93.3309 36.2921 95.1432 35.9076 96.9554 35.2486C98.6578 34.5347 100.25 33.4913 101.568 32.2282C102.941 30.9102 103.927 29.3725 104.641 27.6701C105.355 25.9705 105.684 24.1582 105.684 22.2361C105.684 20.2042 105.355 18.337 104.641 16.6373C103.982 14.9349 102.996 13.4522 101.623 12.1342C100.305 10.8162 98.7128 9.82765 96.9554 9.11373C95.1981 8.40256 93.3309 8.07031 91.3017 8.07031ZM91.3017 17.0767C92.6719 17.0767 93.7702 17.516 94.594 18.5018C95.4178 19.4353 95.8571 20.6435 95.8571 22.2361C95.8571 23.7189 95.4178 24.9819 94.594 25.8606C93.7702 26.7942 92.6719 27.2308 91.3017 27.2308C89.9288 27.2308 88.8854 26.7942 88.0616 25.8606C87.183 24.9819 86.7986 23.7189 86.7986 22.2361C86.7986 20.6435 87.183 19.4353 88.0616 18.5018C88.8854 17.516 89.9288 17.0767 91.3017 17.0767Z" fill="black"/>
<path fill-rule="evenodd" clip-rule="evenodd" d="M72.5232 28C72.7456 26.7369 72.8527 25.1471 72.8527 23.225V8.6748H63.1901V23.3348C63.1901 24.9824 63.0253 26.1356 62.586 26.8495C62.1494 27.5085 61.4904 27.8353 60.5019 27.8353C59.5134 27.8353 58.8544 27.5085 58.4151 26.8495C58.0306 26.2454 57.811 25.0373 57.811 23.3348V8.6748H48.2033V23.225C48.1484 25.2569 48.3131 26.7946 48.5328 28C48.7524 29.2631 49.1918 30.2516 49.686 31.0754C50.7844 32.7778 52.2671 34.0409 54.1315 34.9196C55.9438 35.8531 58.0856 36.2925 60.5019 36.2925C62.9182 36.2925 65.0023 35.8531 66.8695 34.9196C68.7367 34.0409 70.2194 32.7778 71.2628 31.0754C71.812 30.2516 72.2513 29.2082 72.5232 28Z" fill="black"/>
<path fill-rule="evenodd" clip-rule="evenodd" d="M119.411 8.6748H109.748V35.5786H128.799V26.8495H119.411V8.6748Z" fill="black"/>
<path fill-rule="evenodd" clip-rule="evenodd" d="M34.8057 8.01583C32.2246 4.88832 28.8774 2.85639 24.7586 2.08756C20.6975 1.31872 16.8533 1.92281 13.2288 3.89981C11.3644 4.94323 9.77182 6.25849 8.50873 7.79891C7.19073 9.38875 6.20223 11.201 5.54322 13.2329C4.88422 15.3198 4.71947 17.5164 4.93914 19.6555C5.48831 18.2853 6.31206 17.0222 7.30056 15.814C8.7284 14.1116 10.4857 12.8485 12.46 11.9149C14.437 11.0363 16.5788 10.542 18.8303 10.4871C21.0819 10.4871 23.2759 10.9264 25.3078 11.8051C27.4495 12.6838 29.3167 14.0018 30.9093 15.7591C31.5106 16.3604 32.0076 17.0771 32.5019 17.7883C33.2131 17.7883 33.927 17.8432 34.5311 18.0107C36.1237 18.45 37.3867 19.271 38.3752 20.4792L38.4302 19.7104C38.5949 17.5714 38.3752 15.5394 37.7712 13.5624C37.1671 11.5854 36.1786 9.71825 34.8057 8.01583Z" fill="#F7D147"/>
<path fill-rule="evenodd" clip-rule="evenodd" d="M4.50017 27.7827C4.77475 29.4275 5.269 31.0201 6.09276 32.4479C6.86159 33.8757 7.90501 35.1937 9.22302 36.347L9.88202 36.8934C12.1309 38.4311 14.5472 39.5294 17.1832 40.0786C18.8856 40.4081 20.5881 40.2983 22.2356 39.9138C23.9902 39.5294 25.6377 38.8155 27.1753 37.7721C25.7475 37.4453 24.4844 36.6765 23.4959 35.5232L23.1115 35.0839C21.0274 35.3036 18.9405 35.2487 16.8537 34.8093C14.2177 34.2052 11.9112 33.1069 9.77218 31.5692C7.74026 30.0316 6.03784 28.0546 4.77475 25.7508L4.44525 25.0918C4.39034 25.9705 4.39034 26.9041 4.50017 27.7827Z" fill="#EA3330"/>
<path fill-rule="evenodd" clip-rule="evenodd" d="M24.0451 13.9469C22.123 13.1232 20.0389 12.7388 17.8971 12.7388C15.8103 12.7937 13.8333 13.233 12.0238 14.1117C10.2115 14.9354 8.61892 16.1436 7.30092 17.6785C6.36733 18.8318 5.5985 20.0949 5.10425 21.4129C5.48867 23.0604 6.09275 24.5981 6.97142 26.1357C8.23451 28.2747 9.88201 30.087 11.9112 31.5148C13.8882 32.9427 16.1398 33.8763 18.5561 34.4254C20.0389 34.7 21.5765 34.8098 23.1115 34.7549C22.5074 33.7664 22.123 32.723 21.961 31.5148C21.7386 30.3067 21.7962 29.0985 22.0131 27.7832C22.2877 26.1906 22.8918 24.7079 23.7156 23.335C24.5942 21.9621 25.7475 20.699 27.1204 19.7105C27.9991 19.0515 28.9327 18.5572 29.8662 18.1728L29.372 17.6236C27.8343 16.0338 26.077 14.7707 24.0451 13.9469Z" fill="#EF8833"/>
<path fill-rule="evenodd" clip-rule="evenodd" d="M38.7047 23.3345L38.2104 22.5107C37.4965 24.982 36.1785 27.1759 34.4761 29.1529C34.0916 30.8004 33.4326 32.2832 32.554 33.6561C31.678 35.029 30.5248 36.2372 29.2068 37.2779C30.1404 37.3328 31.074 37.168 32.0075 36.8385C32.8835 36.5118 33.7072 36.0175 34.531 35.3585C35.6293 34.3151 36.6727 33.1069 37.5514 31.8439L37.7161 31.6242C38.1006 30.8004 38.485 29.9767 38.7596 29.2078C39.0342 28.3841 39.1989 27.5631 39.2538 26.7943C39.3087 25.9705 39.3087 25.2566 39.144 24.5427C39.0342 24.1033 38.8694 23.7189 38.7047 23.3345Z" fill="#EA3330"/>
<path fill-rule="evenodd" clip-rule="evenodd" d="M2.58021 13.6721C1.86354 15.6492 1.48187 17.7332 1.37204 19.9848C1.31437 22.8954 1.86354 25.6962 2.96188 28.3294C3.51105 29.5925 4.17005 30.8007 4.9938 31.954C5.76264 33.0523 6.6413 34.0957 7.62981 35.0293C5.48805 32.6679 4.22496 29.922 3.84055 26.8494C3.73071 25.806 3.73071 24.8175 3.78563 23.7741C3.07171 21.7971 2.68729 19.8201 2.68729 17.7882C2.68729 15.8661 3.01679 14.0016 3.62088 12.0796C4.11513 10.7616 4.77413 9.49847 5.48805 8.34521C4.22496 9.99272 3.29138 11.7501 2.58021 13.6721Z" fill="#EF8833"/>
<path fill-rule="evenodd" clip-rule="evenodd" d="M40.0779 14.8253C39.5836 13.2327 38.9246 11.695 38.1009 10.2672C37.2771 8.89424 36.2886 7.63115 35.0805 6.48065C33.9821 5.32739 32.719 4.33889 31.2939 3.51514C32.5021 4.33889 33.5977 5.32739 34.5862 6.42573C36.1239 8.18032 37.2771 10.0475 37.9911 12.1343C38.705 14.2761 39.0345 16.4728 38.8697 18.7765C38.8148 19.4904 38.705 20.1494 38.5951 20.8634C38.8697 21.3027 39.1443 21.8519 39.364 22.401C39.9131 23.9936 40.023 25.696 39.7484 27.3957C40.5721 25.037 41.0115 22.5658 40.9566 19.9847C40.8467 18.2274 40.5721 16.4728 40.0779 14.8253Z" fill="#EF8833"/>
<path fill-rule="evenodd" clip-rule="evenodd" d="M33.5979 20.0396C34.1471 21.1928 34.4766 22.4559 34.6413 23.719C34.8061 24.9821 34.861 26.1902 34.7512 27.3957L34.5315 28.6038C36.179 26.6845 37.2773 24.5427 37.9363 22.0715C37.5519 21.6871 37.1675 21.3026 36.7282 20.9731C35.8495 20.3691 34.8061 20.0396 33.5979 20.0396Z" fill="#EA3330"/>
<path fill-rule="evenodd" clip-rule="evenodd" d="M30.3051 34.5351C30.9641 33.6015 31.5105 32.5581 31.8977 31.5146C29.701 33.1072 27.2847 34.2056 24.6487 34.7547C25.0331 35.3588 25.5274 35.8531 26.0765 36.2375C26.6257 36.6219 27.2298 36.8938 27.9437 37.1134C28.8224 36.3473 29.6461 35.4687 30.3051 34.5351Z" fill="#EA3330"/>
<path fill-rule="evenodd" clip-rule="evenodd" d="M19.2698 40.4084L21.6312 40.5183C23.6604 40.4634 25.5825 40.0789 27.4496 39.4749C29.207 38.8708 30.9094 38.047 32.3894 37.0063C31.4586 37.4457 30.4701 37.7724 29.4266 37.8301C29.0971 37.8823 28.7127 37.8823 28.3283 37.8823C25.6374 39.6396 22.617 40.4634 19.2698 40.4084Z" fill="#EA3330"/>
<path fill-rule="evenodd" clip-rule="evenodd" d="M32.3372 24.4879C32.0077 23.0601 31.5107 21.7421 30.7995 20.479C29.5364 20.8634 28.4381 21.5224 27.3946 22.4011C26.2963 23.3347 25.3627 24.4879 24.6488 25.8059C24.0447 27.1239 23.6603 28.3843 23.5505 29.7023C23.3857 30.9654 23.5505 32.1186 23.88 33.217C24.0447 33.6014 24.1546 33.9309 24.3742 34.2604C25.7471 34.0956 27.0102 33.7112 28.2733 33.162C29.5913 32.6678 30.7995 31.9539 31.95 31.0752L32.0626 31.0203C32.2822 30.1965 32.4443 29.3728 32.5541 28.549C32.6639 27.1761 32.609 25.8609 32.3372 24.4879Z" fill="#EA3330"/>
</svg>
