<svg width="129" height="43" viewBox="0 0 129 43" fill="none" xmlns="http://www.w3.org/2000/svg">
<path fill-rule="evenodd" clip-rule="evenodd" d="M4.93977 7.85097C3.4021 9.66322 2.23237 11.7446 1.37292 14.0017C0.47503 16.3548 0 18.7767 0 21.3578C0 24.2684 0.626052 26.9703 1.70242 29.5376C2.76506 32.0775 4.22585 34.2605 6.14794 36.1826C8.01511 38.047 10.2118 39.5297 12.7352 40.6281C15.2614 41.7264 18.0072 42.3305 20.8629 42.3305C23.7735 42.3305 26.4699 41.7456 29.0428 40.6281C31.5223 39.5517 33.7354 38.0744 35.63 36.1826C37.5247 34.2879 38.9662 32.0583 40.0234 29.5376C41.108 26.951 41.7258 24.2684 41.7258 21.3578C41.7258 18.7767 41.248 16.3548 40.3529 14.0017C39.4934 11.7446 38.3347 9.70716 36.7833 7.85097C35.2593 6.03047 33.48 4.51752 31.4591 3.35053C28.2904 1.5218 25.0338 0.439941 21.2473 0.439941C21.0633 0.439941 20.8794 0.439941 20.6982 0.439941C16.9638 0.439941 13.548 1.51082 10.3216 3.35053C8.29244 4.50653 6.47744 6.04146 4.93977 7.85097Z" fill="white" fill-opacity="0.2"/>
<path fill-rule="evenodd" clip-rule="evenodd" d="M91.3019 8.07031C89.2699 8.07031 87.4028 8.40256 85.6454 9.11373C83.8881 9.82765 82.3532 10.8162 81.0352 12.1342C79.7172 13.4522 78.6737 14.9349 78.0147 16.6373C77.3008 18.337 76.9713 20.2042 76.9713 22.2361C76.9713 24.1582 77.3008 26.0254 78.0147 27.725C78.6737 29.3725 79.7172 30.9102 81.0352 32.2282C82.4081 33.4913 83.943 34.5347 85.7003 35.2486C87.4028 35.9077 89.3249 36.2921 91.3019 36.2921C93.331 36.2921 95.1433 35.9077 96.9555 35.2486C98.658 34.5347 100.251 33.4913 101.569 32.2282C102.941 30.9102 103.927 29.3725 104.641 27.6701C105.355 25.9705 105.685 24.1582 105.685 22.2361C105.685 20.2042 105.355 18.337 104.641 16.6373C103.982 14.9349 102.996 13.4522 101.623 12.1342C100.305 10.8162 98.7129 9.82765 96.9555 9.11373C95.1982 8.40256 93.331 8.07031 91.3019 8.07031ZM91.3019 17.0767C92.672 17.0767 93.7704 17.516 94.5941 18.5018C95.4179 19.4353 95.8572 20.6435 95.8572 22.2361C95.8572 23.7189 95.4179 24.9819 94.5941 25.8606C93.7704 26.7942 92.672 27.2308 91.3019 27.2308C89.9289 27.2308 88.8855 26.7942 88.0618 25.8606C87.1831 24.9819 86.7987 23.7189 86.7987 22.2361C86.7987 20.6435 87.1831 19.4353 88.0618 18.5018C88.8855 17.516 89.9289 17.0767 91.3019 17.0767Z" fill="#00AA5D"/>
<path fill-rule="evenodd" clip-rule="evenodd" d="M72.5233 28C72.7457 26.7369 72.8528 25.1471 72.8528 23.225V8.6748H63.1902V23.3348C63.1902 24.9824 63.0254 26.1356 62.5861 26.8495C62.1495 27.5085 61.4905 27.8353 60.502 27.8353C59.5135 27.8353 58.8545 27.5085 58.4152 26.8495C58.0308 26.2454 57.8111 25.0373 57.8111 23.3348V8.6748H48.2034V23.225C48.1485 25.2569 48.3132 26.7946 48.5329 28C48.7526 29.2631 49.1919 30.2516 49.6861 31.0754C50.7845 32.7778 52.2672 34.0409 54.1317 34.9196C55.9439 35.8531 58.0857 36.2925 60.502 36.2925C62.9184 36.2925 65.0024 35.8531 66.8696 34.9196C68.7368 34.0409 70.2195 32.7778 71.263 31.0754C71.8121 30.2516 72.2515 29.2082 72.5233 28Z" fill="#00AA5D"/>
<path fill-rule="evenodd" clip-rule="evenodd" d="M119.411 8.6748H109.748V35.5786H128.799V26.8495H119.411V8.6748Z" fill="#00AA5D"/>
<path fill-rule="evenodd" clip-rule="evenodd" d="M34.8057 8.01583C32.2246 4.88832 28.8774 2.85639 24.7587 2.08756C20.6976 1.31872 16.8534 1.92281 13.2289 3.89981C11.3645 4.94323 9.77188 6.25849 8.50879 7.79891C7.19079 9.38875 6.20229 11.201 5.54328 13.2329C4.88428 15.3198 4.71953 17.5164 4.9392 19.6554C5.48837 18.2853 6.31212 17.0222 7.30062 15.814C8.72846 14.1116 10.4858 12.8485 12.4601 11.9149C14.4371 11.0363 16.5788 10.542 18.8304 10.4871C21.082 10.4871 23.2759 10.9264 25.3078 11.8051C27.4496 12.6838 29.3168 14.0018 30.9094 15.7591C31.5107 16.3604 32.0077 17.0771 32.502 17.7883C33.2131 17.7883 33.927 17.8432 34.5311 18.0107C36.1237 18.45 37.3868 19.271 38.3753 20.4792L38.4302 19.7104C38.595 17.5714 38.3753 15.5394 37.7712 13.5624C37.1671 11.5854 36.1786 9.71825 34.8057 8.01583Z" fill="#00AA5D"/>
<path fill-rule="evenodd" clip-rule="evenodd" d="M4.50029 27.7827C4.77488 29.4275 5.26913 31.0201 6.09288 32.4479C6.86171 33.8757 7.90513 35.1937 9.22314 36.347L9.88214 36.8934C12.131 38.4311 14.5473 39.5294 17.1833 40.0786C18.8858 40.4081 20.5882 40.2983 22.2357 39.9138C23.9903 39.5294 25.6378 38.8155 27.1754 37.7721C25.7476 37.4453 24.4845 36.6765 23.496 35.5232L23.1116 35.0839C21.0275 35.3036 18.9407 35.2487 16.8538 34.8093C14.2178 34.2052 11.9113 33.1069 9.77231 31.5692C7.74038 30.0316 6.03796 28.0546 4.77488 25.7508L4.44537 25.0918C4.39046 25.9705 4.39046 26.9041 4.50029 27.7827Z" fill="#00AA5D"/>
<path fill-rule="evenodd" clip-rule="evenodd" d="M24.0451 13.9469C22.123 13.1232 20.0389 12.7388 17.8971 12.7388C15.8103 12.7937 13.8333 13.233 12.0238 14.1117C10.2115 14.9354 8.61892 16.1436 7.30092 17.6785C6.36733 18.8318 5.5985 20.0949 5.10425 21.4129C5.48867 23.0604 6.09275 24.5981 6.97142 26.1357C8.23451 28.2747 9.88201 30.087 11.9112 31.5148C13.8882 32.9427 16.1398 33.8763 18.5561 34.4254C20.0389 34.7 21.5765 34.8098 23.1115 34.7549C22.5074 33.7664 22.123 32.723 21.961 31.5148C21.7386 30.3067 21.7962 29.0985 22.0131 27.7832C22.2877 26.1906 22.8918 24.7079 23.7156 23.335C24.5942 21.9621 25.7475 20.699 27.1204 19.7105C27.9991 19.0515 28.9327 18.5572 29.8662 18.1728L29.372 17.6236C27.8343 16.0338 26.077 14.7707 24.0451 13.9469Z" fill="#00AA5D"/>
<path fill-rule="evenodd" clip-rule="evenodd" d="M38.7047 23.3345L38.2104 22.5107C37.4965 24.982 36.1785 27.1759 34.4761 29.1529C34.0916 30.8004 33.4326 32.2832 32.554 33.6561C31.678 35.029 30.5248 36.2372 29.2068 37.2779C30.1404 37.3328 31.074 37.168 32.0075 36.8385C32.8835 36.5118 33.7072 36.0175 34.531 35.3585C35.6293 34.3151 36.6727 33.1069 37.5514 31.8439L37.7161 31.6242C38.1006 30.8004 38.485 29.9767 38.7596 29.2078C39.0342 28.3841 39.1989 27.5631 39.2538 26.7943C39.3087 25.9705 39.3087 25.2566 39.144 24.5427C39.0342 24.1033 38.8694 23.7189 38.7047 23.3345Z" fill="#00AA5D"/>
<path fill-rule="evenodd" clip-rule="evenodd" d="M2.58021 13.6721C1.86354 15.6492 1.48187 17.7332 1.37204 19.9848C1.31437 22.8954 1.86354 25.6962 2.96188 28.3294C3.51105 29.5925 4.17005 30.8007 4.9938 31.954C5.76264 33.0523 6.6413 34.0957 7.62981 35.0293C5.48805 32.6679 4.22496 29.922 3.84055 26.8494C3.73071 25.806 3.73071 24.8175 3.78563 23.7741C3.07171 21.7971 2.68729 19.8201 2.68729 17.7882C2.68729 15.8661 3.01679 14.0016 3.62088 12.0796C4.11513 10.7616 4.77413 9.49847 5.48805 8.34521C4.22496 9.99272 3.29138 11.7501 2.58021 13.6721Z" fill="#00AA5D"/>
<path fill-rule="evenodd" clip-rule="evenodd" d="M40.078 14.8253C39.5837 13.2327 38.9247 11.695 38.1009 10.2672C37.2772 8.89424 36.2887 7.63115 35.0805 6.48065C33.9822 5.32739 32.7191 4.33889 31.294 3.51514C32.5022 4.33889 33.5978 5.32739 34.5863 6.42573C36.1239 8.18032 37.2772 10.0475 37.9911 12.1343C38.705 14.2761 39.0345 16.4728 38.8698 18.7765C38.8149 19.4904 38.705 20.1494 38.5952 20.8634C38.8698 21.3027 39.1444 21.8519 39.364 22.401C39.9132 23.9936 40.023 25.696 39.7485 27.3957C40.5722 25.037 41.0115 22.5658 40.9566 19.9847C40.8468 18.2274 40.5722 16.4728 40.078 14.8253Z" fill="#00AA5D"/>
<path fill-rule="evenodd" clip-rule="evenodd" d="M33.5978 20.0396C34.1469 21.1928 34.4764 22.4559 34.6412 23.719C34.8059 24.9821 34.8609 26.1902 34.751 27.3957L34.5314 28.6038C36.1789 26.6845 37.2772 24.5427 37.9362 22.0715C37.5518 21.6871 37.1674 21.3026 36.728 20.9731C35.8494 20.3691 34.8059 20.0396 33.5978 20.0396Z" fill="#00AA5D"/>
<path fill-rule="evenodd" clip-rule="evenodd" d="M30.3051 34.5351C30.9641 33.6015 31.5105 32.5581 31.8977 31.5146C29.701 33.1072 27.2847 34.2056 24.6487 34.7547C25.0331 35.3588 25.5274 35.8531 26.0765 36.2375C26.6257 36.6219 27.2298 36.8938 27.9437 37.1134C28.8224 36.3473 29.6461 35.4687 30.3051 34.5351Z" fill="#00AA5D"/>
<path fill-rule="evenodd" clip-rule="evenodd" d="M19.2698 40.4084L21.6313 40.5183C23.6604 40.4634 25.5825 40.0789 27.4497 39.4749C29.207 38.8708 30.9095 38.047 32.3895 37.0063C31.4586 37.4457 30.4701 37.7724 29.4267 37.8301C29.0972 37.8823 28.7128 37.8823 28.3284 37.8823C25.6374 39.6396 22.617 40.4634 19.2698 40.4084Z" fill="#00AA5D"/>
<path fill-rule="evenodd" clip-rule="evenodd" d="M32.3373 24.4879C32.0078 23.0601 31.5108 21.7421 30.7996 20.479C29.5365 20.8634 28.4382 21.5224 27.3948 22.4011C26.2964 23.3347 25.3628 24.4879 24.6489 25.8059C24.0448 27.1239 23.6604 28.3843 23.5506 29.7023C23.3858 30.9654 23.5506 32.1186 23.8801 33.217C24.0448 33.6014 24.1547 33.9309 24.3743 34.2604C25.7473 34.0956 27.0104 33.7112 28.2734 33.162C29.5914 32.6678 30.7996 31.9539 31.9501 31.0752L32.0627 31.0203C32.2824 30.1965 32.4444 29.3728 32.5542 28.549C32.664 27.1761 32.6091 25.8609 32.3373 24.4879Z" fill="#00AA5D"/>
</svg>
