<svg width="189" height="32" viewBox="0 0 189 32" fill="none" xmlns="http://www.w3.org/2000/svg">
<g clip-path="url(#clip0_1_1781)">
<path fill-rule="evenodd" clip-rule="evenodd" d="M22.4124 29.4727C19.9199 27.9115 18.0837 22.5237 18.0837 16.1224C18.0837 15.8875 18.0852 15.656 18.0905 15.4244L18.0935 15.4278C11.1609 14.3383 6.15194 11.3534 6.02366 7.82371L6.00332 7.8644C4.30704 9.97245 3.33882 12.4098 3.33882 15.0068C3.33882 22.6488 11.7275 28.9104 22.3676 29.4642L22.4124 29.4727ZM0.133705 15.5644C0.133705 7.01353 10.7747 0.0805664 23.9021 0.0805664C37.029 0.0805664 47.6704 7.01353 47.6704 15.5644C47.6704 24.1153 37.0288 31.0484 23.9021 31.0484C10.7747 31.0484 0.133705 24.1151 0.133705 15.5644ZM23.9021 2.3152C26.4362 2.3152 28.5917 6.15927 29.3902 11.5229L29.3932 11.5148C34.3233 10.7474 37.7751 8.9771 37.7751 6.91708C37.7751 4.15219 31.5633 1.91341 23.9021 1.91341C16.2403 1.91341 10.029 4.15238 10.029 6.91708C10.029 8.9771 13.4803 10.7474 18.4109 11.5148L18.4139 11.5229C19.2124 6.15946 21.3685 2.3152 23.9021 2.3152ZM25.4361 29.464C36.0762 28.9104 44.466 22.6486 44.466 15.0066C44.466 12.4098 43.4967 9.97245 41.8006 7.86421L41.7799 7.82352C41.6516 11.3532 36.644 14.3381 29.7106 15.4276L29.7137 15.4243C29.7184 15.6558 29.7208 15.8873 29.7208 16.1222C29.7208 22.5236 27.8833 27.9113 25.3923 29.4725L25.4361 29.464ZM23.9021 11.9215C25.0374 11.9215 26.141 11.8731 27.197 11.78L27.1955 11.7817C26.67 8.34342 25.3936 5.91684 23.9021 5.91684C22.4105 5.91684 21.1343 8.34342 20.608 11.7817L20.6067 11.78C21.6627 11.8731 22.7668 11.9215 23.9021 11.9215ZM23.9021 24.6542C25.8099 24.6542 27.3662 20.6839 27.4493 15.7042L27.4594 15.7078C26.3094 15.8142 25.1199 15.8698 23.9022 15.8698C22.6835 15.8698 21.4951 15.8142 20.3451 15.7078L20.3558 15.7042C20.4376 20.6837 21.9935 24.6542 23.9021 24.6542Z" fill="#5E3BC4"/>
<path fill-rule="evenodd" clip-rule="evenodd" d="M121.416 15.5651C121.416 9.02943 126.716 3.73096 133.25 3.73096C139.788 3.73096 145.086 9.02924 145.086 15.5651C145.086 22.1016 139.788 27.3993 133.25 27.3993C126.716 27.3993 121.416 22.1016 121.416 15.5651ZM133.25 23.0598C136.9 23.0598 139.859 19.704 139.859 15.5651C139.859 11.4264 136.9 8.07025 133.25 8.07025C129.602 8.07025 126.644 11.4264 126.644 15.5651C126.644 19.7038 129.602 23.0598 133.25 23.0598Z" fill="#5E3BC4"/>
<path fill-rule="evenodd" clip-rule="evenodd" d="M158.514 8.66163V26.862H153.528V8.66163H153.544H146.571V4.54688H165.469V8.66163H158.53H158.514Z" fill="#5E3BC4"/>
<path fill-rule="evenodd" clip-rule="evenodd" d="M171.501 21.8413L171.496 21.846L169.584 26.8621H163.761L172.967 4.54688H176.071H179.172L188.379 26.8621H182.555L180.643 21.846L180.638 21.8413H176.071H171.501ZM176.071 18.0751H179.208L179.206 18.076L176.092 9.90845H176.049L172.933 18.076L172.932 18.0751H176.071Z" fill="#5E3BC4"/>
<path fill-rule="evenodd" clip-rule="evenodd" d="M66.5993 8.66163V26.862H61.6129V8.66163H61.6299H54.6562V4.54688H73.5552V8.66163H66.6166H66.5993Z" fill="#5E3BC4"/>
<path fill-rule="evenodd" clip-rule="evenodd" d="M74.831 15.5651C74.831 9.02943 80.1302 3.73096 86.6667 3.73096C93.2027 3.73096 98.5014 9.02924 98.5014 15.5651C98.5014 22.1016 93.2027 27.3993 86.6667 27.3993C80.1302 27.3993 74.831 22.1016 74.831 15.5651ZM86.6667 23.0598C90.3152 23.0598 93.2743 19.704 93.2743 15.5651C93.2743 11.4264 90.3154 8.07025 86.6667 8.07025C83.0176 8.07025 80.0585 11.4264 80.0585 15.5651C80.0585 19.7038 83.0176 23.0598 86.6667 23.0598Z" fill="#5E3BC4"/>
<path fill-rule="evenodd" clip-rule="evenodd" d="M109.958 26.862H112.487V18.4929V18.3885L121.186 4.54688H115.364L109.958 13.9264L104.554 4.54688H98.7303L107.43 18.3885V18.4929V26.862H109.958Z" fill="#5E3BC4"/>
</g>
<defs>
<clipPath id="clip0_1_1781">
<rect width="188.559" height="31.0811" fill="white"/>
</clipPath>
</defs>
</svg>
