<svg width="119" height="27" viewBox="0 0 119 27" fill="none" xmlns="http://www.w3.org/2000/svg">
<g clip-path="url(#clip0_1_2856)">
<path d="M81.4214 0.311523C73.7285 0.311523 68.6224 6.02735 68.6224 13.3032C68.6224 20.996 73.7977 26.2844 81.4214 26.2844C88.8993 26.2844 94.1941 20.7583 94.1941 13.2971C94.1941 5.83743 88.8986 0.311523 81.4214 0.311523ZM37.6238 0.329865C35.18 0.329865 32.0878 1.17062 29.8126 3.03959C27.0986 5.2697 24.9977 8.75903 24.9977 13.4532C24.9977 17.5007 26.3106 20.7606 28.6793 22.9687C30.9979 25.1311 34.2775 26.3115 38.3441 26.3115C41.6177 26.3115 45.5715 25.0773 47.2672 24.0299C47.8607 23.6636 48.047 23.5063 47.8931 22.9076L46.8342 19.9118C46.7113 19.4205 46.1658 19.2946 45.7226 19.5146C44.9782 19.8801 44.4222 20.1678 43.6675 20.4458C42.2015 20.9872 40.6847 21.3564 39.2408 21.3564C36.2006 21.3564 34.4717 20.531 33.1478 19.0077C32.307 18.0405 31.8144 16.8145 31.6613 15.3979H48.4379C49.0483 15.3979 49.3202 14.9764 49.3202 14.2637V13.0559C49.3202 12.4675 49.2936 11.5438 49.2435 10.9914C48.935 7.6168 47.6921 4.90189 45.6187 3.06234C43.6211 1.28752 40.9394 0.329865 37.6238 0.329865ZM64.9755 0.354011C60.1313 0.354011 57.1728 1.46397 55.2746 3.90886C53.8204 5.78371 53.5575 7.88079 53.5591 12.3675V24.6816C53.6261 25.5591 53.9795 25.9695 54.8005 25.9695H58.6329C59.5194 25.9695 59.8817 25.5076 59.8817 24.6816V12.1379C59.8817 9.31199 59.9163 7.73501 60.9111 6.6685C61.7667 5.7513 62.9145 5.15123 65.3222 5.15123C65.7994 5.15123 66.9429 5.27705 67.342 5.3256C67.4929 5.34399 67.6158 5.35578 67.6806 5.35578C68.0959 5.35578 68.2402 5.20497 68.3735 4.67759L68.9485 1.85456C69.0545 1.27571 68.9661 0.825617 68.3888 0.688809C67.5111 0.481392 66.1138 0.354011 64.9755 0.354011ZM1.41249 0.689505C0.995743 0.689505 0.696137 1.02129 0.867689 1.58176C2.0097 5.30867 4.90622 9.73359 7.90961 13.3656C4.08229 16.8101 1.40582 21.3916 0.0628108 25.0729C-0.135262 25.6142 0.171849 25.9681 0.473733 25.9681H4.99015C5.64031 25.9681 5.93843 25.737 6.23663 25.0773C7.45743 22.383 9.27034 19.274 11.6479 16.7526C13.8273 18.8489 15.7344 22.0366 16.9566 25.0773C17.299 25.918 17.6951 25.9681 18.2068 25.9681H23.1311C24.0736 25.9681 24.157 25.4577 23.9876 25.0127C22.1093 20.0671 18.1134 15.0189 15.8596 12.8866C17.9235 10.6859 21.6646 6.43549 23.2992 1.58176C23.54 0.867564 23.0952 0.689505 22.7263 0.689505H18.6029C18.1029 0.689505 17.7688 0.863886 17.3992 1.58176C15.1785 5.76543 13.1794 8.23243 12.3186 9.12167C10.9624 7.51308 9.17901 4.61948 7.87428 1.58176C7.59079 0.922728 7.29109 0.689505 6.71751 0.689505H1.41249ZM96.3545 0.689505C95.9392 0.689505 95.6389 1.02129 95.8097 1.58176C96.951 5.30867 99.8475 9.73359 102.852 13.3656C99.0251 16.8101 96.3485 21.3916 95.0055 25.0729C94.8074 25.6142 95.1167 25.9681 95.4171 25.9681H99.9329C100.582 25.9681 100.88 25.737 101.178 25.0773C102.399 22.383 104.212 19.274 106.59 16.7526C108.77 18.8489 110.677 22.0366 111.898 25.0773C112.243 25.918 112.639 25.9681 113.149 25.9681H118.073C119.015 25.9681 119.099 25.4577 118.93 25.0127C117.051 20.0671 113.055 15.0189 110.804 12.8866C112.866 10.6859 116.608 6.43549 118.242 1.58176C118.483 0.867564 118.038 0.689505 117.668 0.689505H113.547C113.046 0.689505 112.711 0.863886 112.341 1.58176C110.121 5.76543 108.122 8.23243 107.262 9.12167C105.904 7.51308 104.121 4.61948 102.816 1.58176C102.533 0.922728 102.232 0.689505 101.66 0.689505H96.3545ZM81.4251 5.06742C85.904 5.06742 87.5917 8.93709 87.5917 13.2988C87.5917 17.6619 85.904 21.5342 81.4251 21.5336C76.9447 21.5336 75.219 17.6619 75.219 13.2988C75.219 8.93782 76.9447 5.06742 81.4251 5.06742ZM37.8337 5.08947C41.1846 5.08947 43.2317 7.36303 43.2317 10.7376V10.8906H31.6517C31.7762 10.0514 32.0162 9.25398 32.3932 8.49712C33.4254 6.41706 35.3943 5.08947 37.8337 5.08947Z" fill="#C73739"/>
</g>
<defs>
<clipPath id="clip0_1_2856">
<rect width="119" height="26" fill="white" transform="translate(0 0.311523)"/>
</clipPath>
</defs>
</svg>
