<svg width="24" height="24" viewBox="0 0 24 24" fill="none" xmlns="http://www.w3.org/2000/svg">
<path d="M10.8421 10.4149C11.1172 10.2775 11.3335 10.0455 11.4513 9.76155C11.5691 9.47756 11.5806 9.1606 11.4836 8.86884L11.4834 8.86841L10.3184 5.374C10.3184 5.37395 10.3183 5.3739 10.3183 5.37385C10.2336 5.11958 10.0711 4.89839 9.85372 4.74156C9.63633 4.58471 9.37512 4.5002 9.10705 4.5H9.10667H6.55556C6.01039 4.5 5.48755 4.71657 5.10206 5.10206C4.71657 5.48755 4.5 6.01039 4.5 6.55556V7.33333C4.5 14.0526 9.94741 19.5 16.6667 19.5H17.4444C17.9896 19.5 18.5125 19.2834 18.8979 18.8979C19.2834 18.5125 19.5 17.9896 19.5 17.4444V14.8942L19 14.8941M10.8421 10.4149L10.6188 9.9679L10.8425 10.4148L10.8421 10.4149ZM10.8421 10.4149L9.52945 11.0722M9.52945 11.0722C9.45519 10.9308 9.38495 10.7869 9.31887 10.6407L8.86322 10.8466M9.52945 11.0722C10.2916 12.523 11.477 13.7084 12.9278 14.4705M9.52945 11.0722L9.08707 11.2937L8.86322 10.8466M8.86322 10.8466L10.6187 9.96767C10.7861 9.88402 10.9177 9.74281 10.9894 9.56995C11.0612 9.39708 11.0681 9.20415 11.0091 9.02656L9.844 5.532C9.79244 5.37719 9.69349 5.24251 9.56117 5.14704C9.42884 5.05156 9.26984 5.00012 9.10667 5H6.55556C6.143 5 5.74733 5.16389 5.45561 5.45561C5.16389 5.74733 5 6.143 5 6.55556V7.33333C5 13.7764 10.2236 19 16.6667 19H17.4444C17.857 19 18.2527 18.8361 18.5444 18.5444C18.8361 18.2527 19 17.857 19 17.4444V14.8941M8.86322 10.8466C9.72369 12.751 11.249 14.2763 13.1534 15.1368M19 14.8941H19.5C19.5 14.6259 19.4157 14.3644 19.2588 14.1468C19.1019 13.9291 18.8805 13.7664 18.626 13.6816M19 14.8941C19 14.7308 18.9487 14.5716 18.8532 14.4391C18.7577 14.3067 18.6229 14.2076 18.468 14.156L14.9734 12.9909C14.7958 12.9319 14.6029 12.9388 14.4301 13.0106C14.2572 13.0823 14.116 13.2139 14.0323 13.3813M14.0323 13.3813L13.5852 13.1575C13.7227 12.8826 13.9546 12.6665 14.2385 12.5487C14.5224 12.4309 14.8394 12.4194 15.1312 12.5164L15.1316 12.5166L18.626 13.6816M14.0323 13.3813L13.5851 13.1579L12.9278 14.4705M14.0323 13.3813L13.1534 15.1368M18.626 13.6816L18.4685 14.1546L18.6261 13.6817L18.626 13.6816ZM13.1534 15.1368L13.3593 14.6811C13.2131 14.6151 13.0692 14.5448 12.9278 14.4705M13.1534 15.1368L12.7063 14.9129L12.9278 14.4705" stroke="white" stroke-linecap="round" stroke-linejoin="round"/>
</svg>
