<svg width="137" height="39" viewBox="0 0 137 39" fill="none" xmlns="http://www.w3.org/2000/svg">
<path d="M28.9428 33.2229V17.6191H35.3519V19.0912H30.664V24.6397H35.0575V26.1118H30.664V31.7282H35.669V33.2229H28.9428Z" fill="white"/>
<path d="M41.7834 33.2234C39.9942 33.2234 39.9942 33.2234 39.9942 33.2234C36.9369 22.0811 36.9369 22.0811 36.9369 22.0811C38.5901 22.0811 38.5901 22.0811 38.5901 22.0811C40.6963 30.4152 40.6963 30.4152 40.6963 30.4152C40.7642 30.8907 40.8548 31.3437 40.9228 31.8193C41.0813 31.1852 41.1492 30.7322 41.2398 30.4152C43.6631 22.0811 43.6631 22.0811 43.6631 22.0811C45.2936 22.0811 45.2936 22.0811 45.2936 22.0811L41.7834 33.2234Z" fill="white"/>
<path d="M52.4051 26.7459C52.4051 24.4132 51.703 23.1676 50.2989 23.1676C49.5968 23.1676 49.0533 23.4847 48.5777 24.0962C48.1021 24.7303 47.8757 25.5682 47.8077 26.7459H52.4051ZM47.7851 27.9915C47.7851 30.7318 48.8042 32.0453 50.7518 32.0453C51.5218 32.0453 52.473 31.7282 53.3336 31.1847C53.3336 32.6568 53.3336 32.6568 53.3336 32.6568C52.473 33.1323 51.5445 33.3588 50.5254 33.3588C49.1212 33.3588 48.0342 32.8832 47.3095 31.8867C46.5395 30.9582 46.1318 29.4635 46.1318 27.6065C46.1318 25.8853 46.5168 24.4812 47.3095 23.4621C48.0115 22.375 49.0307 21.8994 50.3668 21.8994C52.7901 21.8994 53.9677 23.53 53.9677 26.9723C53.9677 27.9915 53.9677 27.9915 53.9677 27.9915H47.7851Z" fill="white"/>
<path d="M61.0785 23.6209C60.6935 23.4624 60.3765 23.3944 60.0594 23.3944C58.4288 23.3944 57.6362 24.7985 57.6362 27.5388C57.6362 33.2232 57.6362 33.2232 57.6362 33.2232C56.0735 33.2232 56.0735 33.2232 56.0735 33.2232C56.0735 22.0809 56.0735 22.0809 56.0735 22.0809C57.6362 22.0809 57.6362 22.0809 57.6362 22.0809C57.6362 24.0285 57.6362 24.0285 57.6362 24.0285C57.7041 24.0285 57.7041 24.0285 57.7041 24.0285C58.0212 22.6244 58.8818 21.9224 60.1274 21.9224C60.5124 21.9224 60.8294 21.9224 61.0559 21.9903V23.6209H61.0785Z" fill="white"/>
<path d="M67.6463 26.7459C67.6463 24.4132 66.9442 23.1676 65.5401 23.1676C64.838 23.1676 64.2945 23.4847 63.8189 24.0962C63.4339 24.7303 63.1848 25.5682 63.1168 26.7459H67.6463ZM63.1168 27.9915C63.1168 30.7318 64.0454 32.0453 66.0157 32.0453C66.8763 32.0453 67.7368 31.7282 68.5974 31.1847C68.5974 32.6568 68.5974 32.6568 68.5974 32.6568C67.7368 33.1323 66.8083 33.3588 65.7892 33.3588C64.3851 33.3588 63.366 32.8832 62.5733 31.8867C61.8713 30.9582 61.4863 29.4635 61.4863 27.6065C61.4863 25.8853 61.8713 24.4812 62.5733 23.4621C63.3433 22.375 64.3624 21.8994 65.6307 21.8994C68.0539 21.8994 69.2995 23.53 69.2995 26.9723C69.2995 27.9915 69.2995 27.9915 69.2995 27.9915H63.1168Z" fill="white"/>
<path d="M70.8623 32.8153C70.8623 31.2526 70.8623 31.2526 70.8623 31.2526C71.7229 31.7962 72.4929 32.0226 73.2855 32.0226C74.6217 32.0226 75.2332 31.4791 75.2332 30.3015C75.2332 29.9165 75.1652 29.5994 74.8482 29.2823C74.6217 28.9653 74.1461 28.6482 73.4441 28.1953C72.357 27.6518 71.655 27.1082 71.3379 26.5647C71.0208 26.0891 70.8623 25.5456 70.8623 24.9341C70.8623 24.0735 71.1794 23.3035 71.8814 22.76C72.5155 22.1259 73.3761 21.8994 74.3726 21.8994C75.1426 21.8994 75.8673 21.9674 76.4788 22.2844C76.4788 23.8471 76.4788 23.8471 76.4788 23.8471C75.7767 23.3715 75.0747 23.2129 74.3726 23.2129C73.8291 23.2129 73.3535 23.3715 73.0364 23.6885C72.6514 24.0056 72.4929 24.3906 72.4929 24.8662C72.4929 25.2512 72.6514 25.5682 72.81 25.8853C73.0364 26.2023 73.6026 26.5873 74.3726 27.0629C75.4597 27.6065 76.0938 28.15 76.4108 28.6935C76.7279 29.1691 76.8864 29.7126 76.8864 30.3241C76.8864 31.1847 76.5694 31.9547 75.9579 32.4982C75.3238 33.1323 74.4632 33.3588 73.3082 33.3588C72.3344 33.3588 71.5644 33.2229 70.8623 32.8153Z" fill="white"/>
<path d="M83.2047 33.1328C82.8197 33.2913 82.2762 33.3593 81.8006 33.3593C80.17 33.3593 79.3773 32.4308 79.3773 30.5511C79.3773 23.3719 79.3773 23.372 79.3773 23.372C77.8147 23.372 77.8147 23.372 77.8147 23.372C77.8147 22.0358 77.8147 22.0358 77.8147 22.0358C79.3773 22.0358 79.3773 22.0358 79.3773 22.0358C79.3773 19.2955 79.3773 19.2955 79.3773 19.2955C79.3773 19.2275 79.5359 19.2275 79.6944 19.137C80.3285 18.9784 80.7135 18.8199 80.94 18.752C80.94 22.0358 80.94 22.0358 80.94 22.0358C83.2047 22.0358 83.2047 22.0358 83.2047 22.0358C83.2047 23.3719 83.2047 23.372 83.2047 23.372C80.94 23.372 80.94 23.372 80.94 23.372C80.94 30.3925 80.94 30.3925 80.94 30.3925C80.94 31.4796 81.325 32.0231 82.1856 32.0231C82.5706 32.0231 82.8876 31.9552 83.2047 31.7966V33.1328Z" fill="white"/>
<path d="M99.6241 32.1136C98.3785 33.0422 97.0423 33.4498 95.5702 33.4498C93.7811 33.4498 92.3544 32.7478 91.2673 31.3436C90.1803 29.9395 89.6367 27.9919 89.6367 25.6592C89.6367 23.1681 90.1802 21.2204 91.3579 19.6578C92.6035 18.0951 94.0982 17.3931 96.0458 17.3931C97.2235 17.3931 98.2426 17.6195 99.2617 18.0951C99.2617 19.8842 99.2617 19.8842 99.2617 19.8842C98.2426 19.1822 97.1555 18.8651 96.0458 18.8651C94.6417 18.8651 93.5547 19.4992 92.6941 20.7448C91.8335 21.9904 91.3579 23.5531 91.3579 25.5007C91.3579 27.5389 91.7429 29.0789 92.5355 30.2566C93.3961 31.4342 94.4152 31.9778 95.7514 31.9778C96.5214 31.9778 97.3141 31.7513 97.9482 31.3436C97.9482 26.5878 97.9482 26.5878 97.9482 26.5878C95.3664 26.5878 95.3664 26.5878 95.3664 26.5878C95.3664 25.1836 95.3664 25.1837 95.3664 25.1837C99.6694 25.1837 99.6694 25.1837 99.6694 25.1837V32.1136H99.6241Z" fill="white"/>
<path d="M107.437 23.6209C107.052 23.4624 106.735 23.3944 106.418 23.3944C104.787 23.3944 103.994 24.7985 103.994 27.5388C103.994 33.2232 103.994 33.2232 103.994 33.2232C102.341 33.2232 102.341 33.2232 102.341 33.2232C102.341 22.0809 102.341 22.0809 102.341 22.0809C103.994 22.0809 103.994 22.0809 103.994 22.0809C103.994 24.0285 103.994 24.0285 103.994 24.0285C104.379 22.6244 105.24 21.9224 106.486 21.9224C106.871 21.9224 107.188 21.9224 107.414 21.9903V23.6209H107.437Z" fill="white"/>
<path d="M112.057 23.2356C111.196 23.2356 110.562 23.6206 110.109 24.4132C109.724 25.1832 109.475 26.2929 109.475 27.697C109.475 30.5732 110.336 32.0679 112.057 32.0679C113.687 32.0679 114.548 30.5959 114.548 27.6291C114.548 26.225 114.322 25.1379 113.914 24.4359C113.461 23.6206 112.849 23.2356 112.057 23.2356ZM111.989 33.3588C110.653 33.3588 109.634 32.8832 108.932 31.8867C108.162 30.8676 107.844 29.4635 107.844 27.7423C107.844 25.8626 108.162 24.3906 108.932 23.3715C109.724 22.3524 110.721 21.8994 112.057 21.8994C113.393 21.8994 114.389 22.375 115.114 23.3715C115.884 24.3906 116.292 25.7041 116.292 27.5159C116.292 29.3956 115.907 30.7997 115.205 31.7962C114.412 32.9059 113.393 33.3588 111.989 33.3588Z" fill="white"/>
<path d="M124.332 33.2234C124.332 31.5022 124.332 31.5022 124.332 31.5022C124.264 31.5022 124.264 31.5022 124.264 31.5022C123.72 32.7478 122.701 33.3819 121.456 33.3819C119.417 33.3819 118.398 32.2043 118.398 29.8716C118.398 22.0811 118.398 22.0811 118.398 22.0811C119.961 22.0811 119.961 22.0811 119.961 22.0811C119.961 29.4866 119.961 29.4866 119.961 29.4866C119.961 31.2078 120.663 32.0684 121.999 32.0684C122.701 32.0684 123.245 31.7513 123.652 31.2984C124.128 30.7549 124.354 30.1208 124.354 29.2602C124.354 22.0811 124.354 22.0811 124.354 22.0811C125.917 22.0811 125.917 22.0811 125.917 22.0811C125.917 33.2234 125.917 33.2234 125.917 33.2234H124.332Z" fill="white"/>
<path d="M130.265 27.0403C130.265 28.5123 130.265 28.5123 130.265 28.5123C130.265 29.5315 130.492 30.392 130.899 31.0035C131.284 31.7056 131.918 32.0226 132.62 32.0226C134.342 32.0226 135.112 30.392 135.112 27.1988C135.112 25.9532 134.953 24.9341 134.568 24.2321C134.183 23.5979 133.549 23.2129 132.847 23.2129C132.077 23.2129 131.443 23.5979 130.967 24.2321C130.514 24.9568 130.265 25.8853 130.265 27.0403ZM130.356 31.8188C130.356 38.3638 130.356 38.3638 130.356 38.3638C128.725 38.3638 128.725 38.3638 128.725 38.3638C128.725 22.0579 128.725 22.0579 128.725 22.0579C130.356 22.0579 130.356 22.0579 130.356 22.0579C130.356 23.8471 130.356 23.8471 130.356 23.8471C130.899 22.5109 131.918 21.8994 133.322 21.8994C134.409 21.8994 135.27 22.2844 135.904 23.2356C136.448 24.1641 136.765 25.4097 136.765 27.1309C136.765 29.0785 136.448 30.5732 135.836 31.7282C135.134 32.8153 134.206 33.3588 132.937 33.3588C131.76 33.3588 130.899 32.8153 130.356 31.8188Z" fill="white"/>
<path d="M47.9432 15.9888L29.8935 6.92999L0.88269 29.0788V29.0108L29.8029 0L47.9432 15.8982V15.9888Z" fill="white"/>
</svg>
